<svg width="107" height="44" viewBox="0 0 107 44" fill="none" xmlns="http://www.w3.org/2000/svg">
<path d="M15 39C23.2843 39 30 32.2843 30 24C30 15.7157 23.2843 9 15 9C6.71573 9 0 15.7157 0 24C0 32.2843 6.71573 39 15 39Z" fill="#00B2E2"/>
<path d="M38.541 35V11.9H42.765V31.238H52.269V35H38.541ZM61.7116 35.33C59.9186 35.33 58.3896 34.9395 57.1246 34.1585C55.8596 33.3775 54.8916 32.338 54.2206 31.04C53.5606 29.742 53.2306 28.323 53.2306 26.783C53.2306 25.232 53.5606 23.802 54.2206 22.493C54.8916 21.184 55.8596 20.139 57.1246 19.358C58.3896 18.566 59.9186 18.17 61.7116 18.17C63.5046 18.17 65.0336 18.566 66.2986 19.358C67.5636 20.139 68.5261 21.184 69.1861 22.493C69.8571 23.802 70.1926 25.232 70.1926 26.783C70.1926 28.323 69.8571 29.742 69.1861 31.04C68.5261 32.338 67.5636 33.3775 66.2986 34.1585C65.0336 34.9395 63.5046 35.33 61.7116 35.33ZM61.7116 31.964C63.0866 31.964 64.1426 31.4855 64.8796 30.5285C65.6276 29.5605 66.0016 28.312 66.0016 26.783C66.0016 25.232 65.6276 23.9725 64.8796 23.0045C64.1426 22.0255 63.0866 21.536 61.7116 21.536C60.3476 21.536 59.2916 22.0255 58.5436 23.0045C57.7956 23.9725 57.4216 25.232 57.4216 26.783C57.4216 28.312 57.7956 29.5605 58.5436 30.5285C59.2916 31.4855 60.3476 31.964 61.7116 31.964ZM79.575 43.316C78.035 43.316 76.6875 43.1235 75.5325 42.7385C74.3885 42.3645 73.4975 41.8255 72.8595 41.1215C72.2325 40.4175 71.919 39.576 71.919 38.597C71.919 37.772 72.1445 37.035 72.5955 36.386C73.0575 35.748 73.723 35.187 74.592 34.703C74.152 34.439 73.8 34.109 73.536 33.713C73.272 33.317 73.14 32.866 73.14 32.36C73.14 31.832 73.2885 31.3755 73.5855 30.9905C73.8935 30.5945 74.295 30.281 74.79 30.05C73.954 29.456 73.3215 28.697 72.8925 27.773C72.4635 26.838 72.249 25.826 72.249 24.737C72.249 23.549 72.5075 22.46 73.0245 21.47C73.5415 20.469 74.295 19.6715 75.285 19.0775C76.286 18.4725 77.507 18.17 78.948 18.17C79.696 18.17 80.3835 18.2635 81.0105 18.4505C81.6485 18.6375 82.215 18.896 82.71 19.226C83.04 19.039 83.5185 18.874 84.1455 18.731C84.7725 18.577 85.471 18.5 86.241 18.5C86.428 18.5 86.604 18.5 86.769 18.5C86.945 18.5 87.121 18.5 87.297 18.5L87.033 21.074C86.791 21.074 86.5435 21.074 86.2905 21.074C86.0485 21.074 85.801 21.074 85.548 21.074C85.449 21.074 85.317 21.074 85.152 21.074C84.987 21.074 84.811 21.085 84.624 21.107C84.954 21.613 85.2015 22.1795 85.3665 22.8065C85.5315 23.4335 85.614 24.077 85.614 24.737C85.614 25.925 85.3555 27.0195 84.8385 28.0205C84.3325 29.0105 83.5845 29.808 82.5945 30.413C81.6045 31.007 80.389 31.304 78.948 31.304C78.64 31.304 78.343 31.282 78.057 31.238C77.771 31.194 77.485 31.139 77.199 31.073C76.957 31.172 76.836 31.348 76.836 31.601C76.836 31.898 77.0175 32.1235 77.3805 32.2775C77.7435 32.4315 78.31 32.569 79.08 32.69L81.918 33.053C83.689 33.284 85.075 33.7845 86.076 34.5545C87.088 35.3245 87.594 36.419 87.594 37.838C87.594 38.938 87.275 39.895 86.637 40.709C86.01 41.534 85.097 42.172 83.898 42.623C82.699 43.085 81.258 43.316 79.575 43.316ZM79.74 40.214C81.126 40.214 82.1765 40.0435 82.8915 39.7025C83.6065 39.3615 83.964 38.839 83.964 38.135C83.964 37.508 83.711 37.046 83.205 36.749C82.71 36.452 81.918 36.221 80.829 36.056L77.2155 35.528C76.6765 35.737 76.2255 36.023 75.8625 36.386C75.4995 36.76 75.318 37.244 75.318 37.838C75.318 38.641 75.7085 39.235 76.4895 39.62C77.2705 40.016 78.354 40.214 79.74 40.214ZM78.948 28.268C79.927 28.268 80.664 27.949 81.159 27.311C81.665 26.662 81.918 25.804 81.918 24.737C81.918 23.659 81.665 22.801 81.159 22.163C80.664 21.525 79.927 21.206 78.948 21.206C77.958 21.206 77.21 21.525 76.704 22.163C76.198 22.801 75.945 23.659 75.945 24.737C75.945 25.804 76.198 26.662 76.704 27.311C77.21 27.949 77.958 28.268 78.948 28.268ZM96.9353 35.33C95.1423 35.33 93.6133 34.9395 92.3483 34.1585C91.0833 33.3775 90.1153 32.338 89.4443 31.04C88.7843 29.742 88.4543 28.323 88.4543 26.783C88.4543 25.232 88.7843 23.802 89.4443 22.493C90.1153 21.184 91.0833 20.139 92.3483 19.358C93.6133 18.566 95.1423 18.17 96.9353 18.17C98.7283 18.17 100.257 18.566 101.522 19.358C102.787 20.139 103.75 21.184 104.41 22.493C105.081 23.802 105.416 25.232 105.416 26.783C105.416 28.323 105.081 29.742 104.41 31.04C103.75 32.338 102.787 33.3775 101.522 34.1585C100.257 34.9395 98.7283 35.33 96.9353 35.33ZM96.9353 31.964C98.3103 31.964 99.3663 31.4855 100.103 30.5285C100.851 29.5605 101.225 28.312 101.225 26.783C101.225 25.232 100.851 23.9725 100.103 23.0045C99.3663 22.0255 98.3103 21.536 96.9353 21.536C95.5713 21.536 94.5153 22.0255 93.7673 23.0045C93.0193 23.9725 92.6453 25.232 92.6453 26.783C92.6453 28.312 93.0193 29.5605 93.7673 30.5285C94.5153 31.4855 95.5713 31.964 96.9353 31.964Z" fill="white"/>
<path d="M7.541 31V7.9H11.765V27.238H21.269V31H7.541Z" fill="white"/>
</svg>
