<svg width="122" height="28" viewBox="0 0 122 28" fill="none" xmlns="http://www.w3.org/2000/svg">
<path d="M3.1198 18.46C3.1198 19.3653 3.34847 19.9953 3.8058 20.35C4.27247 20.7047 5.0938 20.882 6.2698 20.882C8.08047 20.882 8.9858 20.4013 8.9858 19.44C8.9858 19.0947 8.8738 18.824 8.6498 18.628C8.4258 18.432 8.00113 18.236 7.3758 18.04C6.4798 17.76 5.84513 17.4147 5.4718 17.004C5.06113 16.556 4.8558 15.954 4.8558 15.198C4.8558 14.1993 5.16847 13.4527 5.7938 12.958C6.31647 12.5473 7.02113 12.342 7.9078 12.342C8.4678 12.342 9.0138 12.426 9.5458 12.594V13.882C9.03247 13.7513 8.58447 13.686 8.2018 13.686C7.6698 13.686 7.25447 13.8213 6.9558 14.092C6.65713 14.3627 6.5078 14.736 6.5078 15.212C6.5078 15.5947 6.61513 15.8887 6.8298 16.094C7.04447 16.29 7.4878 16.5093 8.1598 16.752C9.01847 17.06 9.6298 17.396 9.9938 17.76C10.4418 18.1987 10.6658 18.754 10.6658 19.426C10.6658 20.4807 10.1945 21.2553 9.2518 21.75C8.5798 22.114 7.7538 22.296 6.7738 22.296H5.3878C4.2958 22.296 3.40447 22.03 2.7138 21.498C1.8458 20.8447 1.4118 19.8833 1.4118 18.614V17.2L2.2798 16.514H3.1198V18.46ZM15.2629 18.95C14.2363 18.95 13.4289 18.6 12.8409 17.9C12.3463 17.3027 12.0989 16.5653 12.0989 15.688C12.0989 14.6427 12.3929 13.826 12.9809 13.238C13.5969 12.6407 14.3856 12.342 15.3469 12.342C16.0469 12.342 16.6536 12.5147 17.1669 12.86C17.8389 13.3453 18.1749 14.036 18.1749 14.932V17.522H18.6229V18.95H18.1609C18.0956 19.958 17.7409 20.7467 17.0969 21.316C16.6489 21.7173 16.1123 21.9927 15.4869 22.142C15.0483 22.2447 14.6189 22.296 14.1989 22.296C14.0589 22.296 13.8583 22.2867 13.5969 22.268H13.5549L12.8409 21.386V20.77C13.2236 20.8353 13.5829 20.868 13.9189 20.868C15.4496 20.868 16.2849 20.2287 16.4249 18.95H15.2629ZM16.4669 14.932C16.4669 14.5587 16.3456 14.2647 16.1029 14.05C15.8883 13.8633 15.6363 13.77 15.3469 13.77C14.8709 13.77 14.4929 13.938 14.2129 14.274C13.9329 14.61 13.7929 15.072 13.7929 15.66C13.7929 16.2293 13.9469 16.682 14.2549 17.018C14.5629 17.354 14.9829 17.522 15.5149 17.522H16.4669V14.932ZM19.877 9.43C20.129 9.43 20.3437 9.51867 20.521 9.696C20.6984 9.87333 20.787 10.088 20.787 10.34C20.787 10.5827 20.6984 10.7927 20.521 10.97C20.3437 11.1473 20.129 11.236 19.877 11.236C19.625 11.236 19.4104 11.1473 19.233 10.97C19.0557 10.7927 18.967 10.5827 18.967 10.34C18.967 10.088 19.0557 9.87333 19.233 9.696C19.4104 9.51867 19.625 9.43 19.877 9.43ZM22.005 9.43C22.257 9.43 22.4717 9.51867 22.649 9.696C22.8264 9.87333 22.915 10.088 22.915 10.34C22.915 10.5827 22.8264 10.7927 22.649 10.97C22.4717 11.1473 22.257 11.236 22.005 11.236C21.7624 11.236 21.5524 11.1473 21.375 10.97C21.1977 10.7927 21.109 10.5827 21.109 10.34C21.109 10.088 21.1977 9.87333 21.375 9.696C21.5524 9.51867 21.7624 9.43 22.005 9.43ZM22.733 12.51V17.312V17.522H23.447V18.95H22.957L22.439 18.376H22.411C22.0937 18.7587 21.697 18.95 21.221 18.95H18.519V17.522H20.633C20.7637 17.522 20.857 17.4847 20.913 17.41C20.997 17.3353 21.039 17.242 21.039 17.13V12.51H22.733ZM25.1932 12.748C26.0799 12.4773 26.8872 12.342 27.6152 12.342C28.7445 12.342 29.6545 12.6967 30.3452 13.406C30.9705 14.0407 31.2832 14.8433 31.2832 15.814V17.312V17.522H31.7452V18.95H31.4512L30.9892 18.376H30.9612C30.6439 18.7587 30.2472 18.95 29.7712 18.95H23.3312V17.522H29.2252C29.4585 17.522 29.5752 17.4053 29.5752 17.172V15.912C29.5752 15.2773 29.3605 14.7687 28.9312 14.386C28.5112 13.994 27.9559 13.798 27.2652 13.798C26.8079 13.798 26.1172 13.9007 25.1932 14.106V12.748ZM34.136 17.522C33.912 16.9807 33.8 16.374 33.8 15.702C33.8 14.6007 34.1407 13.7467 34.822 13.14C35.3914 12.6267 36.1194 12.3653 37.006 12.356C37.7994 12.356 38.448 12.5427 38.952 12.916C39.568 13.3827 39.876 14.0547 39.876 14.932V17.172C39.876 17.256 39.8994 17.3353 39.946 17.41C40.0207 17.4847 40.1047 17.522 40.198 17.522H40.324V18.95H39.708C39.288 18.95 38.9287 18.8007 38.63 18.502C38.1727 19.0807 37.566 19.37 36.81 19.37C35.998 19.37 35.3074 19.0713 34.738 18.474H34.71L34.318 18.95H31.644V17.522H34.136ZM38.168 14.932C38.168 14.5867 38.0607 14.3067 37.846 14.092C37.65 13.8773 37.37 13.77 37.006 13.77C36.5487 13.77 36.18 13.9473 35.9 14.302C35.6294 14.6567 35.494 15.1327 35.494 15.73C35.494 16.3833 35.634 16.9153 35.914 17.326C36.194 17.7367 36.5534 17.942 36.992 17.942C37.3934 17.942 37.7854 17.7507 38.168 17.368V14.932ZM44.444 8.926V17.41C44.444 17.802 44.318 18.138 44.066 18.418C43.7766 18.7727 43.3986 18.95 42.932 18.95H40.23V17.522H42.386C42.4886 17.522 42.5773 17.4847 42.652 17.41C42.7173 17.3447 42.75 17.2653 42.75 17.172V8.926H44.444ZM48.0866 8.926V18.6L47.2186 19.3H46.3786V8.926H48.0866ZM55.4276 9.43C55.6796 9.43 55.8943 9.51867 56.0716 9.696C56.249 9.87333 56.3376 10.088 56.3376 10.34C56.3376 10.5827 56.249 10.7927 56.0716 10.97C55.8943 11.1473 55.6796 11.236 55.4276 11.236C55.1756 11.236 54.961 11.1473 54.7836 10.97C54.6063 10.7927 54.5176 10.5827 54.5176 10.34C54.5176 10.088 54.6063 9.87333 54.7836 9.696C54.961 9.51867 55.1756 9.43 55.4276 9.43ZM57.5556 9.43C57.8076 9.43 58.0223 9.51867 58.1996 9.696C58.377 9.87333 58.4656 10.088 58.4656 10.34C58.4656 10.5827 58.377 10.7927 58.1996 10.97C58.0223 11.1473 57.8076 11.236 57.5556 11.236C57.313 11.236 57.103 11.1473 56.9256 10.97C56.7483 10.7927 56.6596 10.5827 56.6596 10.34C56.6596 10.088 56.7483 9.87333 56.9256 9.696C57.103 9.51867 57.313 9.43 57.5556 9.43ZM58.4656 12.132V17.172C58.4656 17.284 58.4983 17.368 58.5636 17.424C58.6196 17.4893 58.6943 17.522 58.7876 17.522H59.1796V18.95H58.2976C57.8683 18.95 57.481 18.7773 57.1356 18.432C56.6036 18.8707 56.011 19.09 55.3576 19.09C54.6203 19.09 53.9856 18.8567 53.4536 18.39C52.7443 17.7273 52.3896 16.8407 52.3896 15.73C52.3896 14.7127 52.7163 13.868 53.3696 13.196C53.967 12.5893 54.6996 12.286 55.5676 12.286C56.053 12.286 56.5383 12.3887 57.0236 12.594L57.6256 12.132H58.4656ZM56.7576 13.938C56.431 13.8167 56.1183 13.756 55.8196 13.756C55.3156 13.756 54.9003 13.9427 54.5736 14.316C54.247 14.68 54.0836 15.156 54.0836 15.744C54.0836 16.332 54.2283 16.8033 54.5176 17.158C54.8163 17.5127 55.213 17.69 55.7076 17.69C56.0436 17.69 56.3936 17.6153 56.7576 17.466V13.938ZM63.2975 14.862C64.5482 13.1727 66.0928 12.328 67.9315 12.328C69.0515 12.328 69.9755 12.678 70.7035 13.378C71.3662 14.0127 71.6975 14.8153 71.6975 15.786V17.074C71.6975 17.13 71.6928 17.2093 71.6835 17.312C71.6835 17.4053 71.6835 17.4753 71.6835 17.522H72.1455V18.95H71.8655L71.4035 18.376H71.3615C71.0535 18.7587 70.6568 18.95 70.1715 18.95H59.0835V17.522H61.6035L61.5895 12.51H63.2975V14.862ZM69.9895 15.87C69.9802 15.198 69.7235 14.666 69.2195 14.274C68.7902 13.9567 68.2722 13.798 67.6655 13.798C66.7322 13.798 65.8688 14.1853 65.0755 14.96C64.3475 15.5667 63.7548 16.4207 63.2975 17.522H69.6395C69.8728 17.522 69.9895 17.4053 69.9895 17.172V15.87ZM75.4044 9.43C75.6564 9.43 75.8711 9.51867 76.0484 9.696C76.2258 9.87333 76.3144 10.088 76.3144 10.34C76.3144 10.5827 76.2258 10.7927 76.0484 10.97C75.8711 11.1473 75.6564 11.236 75.4044 11.236C75.1618 11.236 74.9518 11.1473 74.7744 10.97C74.5971 10.7927 74.5084 10.5827 74.5084 10.34C74.5084 10.088 74.5971 9.87333 74.7744 9.696C74.9518 9.51867 75.1618 9.43 75.4044 9.43ZM76.2584 12.51V17.312V17.522H76.9724V18.95H76.4824L75.9644 18.376H75.9364C75.6191 18.7587 75.2224 18.95 74.7464 18.95H72.0444V17.522H74.1584C74.2891 17.522 74.3824 17.4847 74.4384 17.41C74.5224 17.3353 74.5644 17.242 74.5644 17.13V12.51H76.2584ZM79.3766 14.932C79.3766 14.0453 79.6846 13.3733 80.3006 12.916C80.7859 12.5427 81.4486 12.356 82.2886 12.356C83.1099 12.356 83.8053 12.5987 84.3746 13.084C85.0933 13.7 85.4526 14.5727 85.4526 15.702C85.4526 16.766 85.1679 17.648 84.5986 18.348C84.0479 19.0293 83.3339 19.37 82.4566 19.37C81.6819 19.37 81.0706 19.0807 80.6226 18.502C80.3239 18.8007 79.9599 18.95 79.5306 18.95H76.8566V17.522H79.0126C79.1153 17.522 79.2039 17.4847 79.2786 17.41C79.3439 17.3447 79.3766 17.2653 79.3766 17.172V14.932ZM81.0706 17.368C81.4159 17.7413 81.8126 17.928 82.2606 17.928C82.6993 17.928 83.0586 17.7367 83.3386 17.354C83.6186 16.962 83.7586 16.458 83.7586 15.842C83.7586 15.17 83.6046 14.6427 83.2966 14.26C83.0166 13.9333 82.6526 13.77 82.2046 13.77C81.8686 13.77 81.6026 13.8773 81.4066 14.092C81.1826 14.2973 81.0706 14.5773 81.0706 14.932V17.368Z" fill="#19193E"/>
<path d="M112.6 27.1C112.2 26.7 111.6 26.1 111.2 25.7C110.8 25.3 110.2 24.7 109.8 24.3L108.9 23.4L107.5 22C107.1 21.6 106.5 21 106.1 20.6L105.2 19.7C104.8 19.3 104.2 18.7 103.8 18.3C103.4 17.9 102.8 17.3 102.4 16.9L101.4 16C101 15.6 100.4 15 100 14.6C99.6002 14.2 99.0002 13.6 98.6002 13.2L97.7002 12.3C97.3002 11.9 96.7002 11.3 96.3002 10.9C95.9002 10.5 95.3002 9.9 94.9002 9.5C94.5002 9.1 94.2002 9.2 94.2002 9.8V12.5C94.2002 13.1 94.3002 13.6 94.4002 13.7C94.5002 13.8 94.9002 14.2 95.3002 14.6L96.2002 15.5C96.6002 15.9 97.2002 16.5 97.6002 16.9C98.0002 17.3 98.6002 17.9 99.0002 18.3L99.9002 19.2C100.3 19.6 100.9 20.2 101.3 20.6C101.7 21 102.3 21.6 102.7 22L103.6 22.9C104 23.3 104.6 23.9 105 24.3C105.4 24.7 106 25.3 106.4 25.7L107.3 26.6C107.7 27 108.1 27.4 108.2 27.5C108.3 27.6 108.9 27.7 109.4 27.7H112.1C112.8 27.8 113 27.5 112.6 27.1Z" fill="#19193E"/>
<path d="M116.3 23.4C115.9 23 115.3 22.4 114.9 22C114.5 21.6 113.9 21 113.5 20.6L112.6 19.7C112.2 19.3 111.6 18.7 111.2 18.3C110.8 17.9 110.2 17.3 109.8 16.9L108.9 16C108.5 15.6 107.9 15 107.5 14.6C107.1 14.2 106.5 13.6 106.1 13.2L105.2 12.3C104.8 11.9 104.2 11.3 103.8 10.9C103.4 10.5 102.8 9.9 102.4 9.5L101.5 8.6C101.1 8.2 100.5 7.6 100.1 7.2C99.7003 6.8 99.1003 6.2 98.7003 5.8L95.0003 2.1C94.6003 1.7 94.3003 1.8 94.3003 2.4V5.1C94.3003 5.7 94.6003 6.5 95.0003 6.9L96.3003 8.2C96.7003 8.6 97.3003 9.2 97.7003 9.6C98.1003 10 98.7003 10.6 99.1003 11L100 11.9C100.4 12.3 101 12.9 101.4 13.3L102.8 14.7L103.7 15.6C104.1 16 104.7 16.6 105.1 17C105.5 17.4 106.1 18 106.5 18.4L107.4 19.3C107.8 19.7 108.4 20.3 108.8 20.7C109.2 21.1 109.8 21.7 110.2 22.1L111.1 23C111.5 23.4 112.1 24 112.5 24.4C112.9 24.8 113.5 25.4 113.9 25.8L115.2 27.1C115.6 27.5 116.4 27.8 117 27.8H119.7C120.3 27.8 120.4 27.5 120 27.1L116.3 23.4Z" fill="#19193E"/>
<path d="M94.2002 26.8C94.2002 27.4 94.7002 27.9 95.3002 27.9H97.4002C98.0002 27.9 98.1002 27.6 97.7002 27.2L96.3002 25.8C95.9002 25.4 95.3002 24.8 94.9002 24.4C94.5002 24 94.2002 24.1 94.2002 24.7V26.8Z" fill="#19193E"/>
<path d="M114.8 19.3C115.2 19.7 115.9 19.7 116.3 19.3L121.3 14.3C121.7 13.9 122 13.1 122 12.5V9.8C122 9.2 121.7 9.1 121.3 9.5L113.9 16.9C113.5 17.3 113.5 18 113.9 18.4L114.8 19.3Z" fill="#19193E"/>
<path d="M94.2001 19.9C94.2001 20.5 94.3001 21 94.4001 21.1C94.5001 21.2 94.9001 21.6 95.3001 22L96.2001 22.9C96.6001 23.3 97.2001 23.9 97.6001 24.3C98.0001 24.7 98.6001 25.3 99.0001 25.7L99.9001 26.6C100.3 27 100.7 27.4 100.8 27.5C100.9 27.6 101.5 27.7 102 27.7H104.7C105.3 27.7 105.4 27.4 105 27C104.6 26.6 104 26 103.6 25.6C103.2 25.2 102.6 24.6 102.2 24.2L101.3 23.3C100.9 22.9 100.3 22.3 99.9001 21.9C99.5001 21.5 98.9001 20.9 98.5001 20.5L97.6001 19.6C97.2001 19.2 96.6001 18.6 96.2001 18.2C95.8001 17.8 95.2001 17.2 94.8001 16.8C94.4001 16.4 94.1001 16.5 94.1001 17.1V19.9H94.2001Z" fill="#19193E"/>
<path d="M117.6 20.6C117.2 21 117.2 21.7 117.6 22.1L121.3 25.8C121.7 26.2 122 26.1 122 25.5V17.2C122 16.6 121.7 16.5 121.3 16.9L117.6 20.6Z" fill="#19193E"/>
<path d="M111.1 15.6C111.5 16 112.2 16 112.6 15.6L121.3 6.9C121.7 6.5 122 5.7 122 5.1V2.4C122 1.8 121.7 1.7 121.3 2.1L110.2 13.2C109.8 13.6 109.8 14.3 110.2 14.7L111.1 15.6Z" fill="#19193E"/>
<path d="M103.7 8.1C104.1 8.5 104.8 8.5 105.2 8.1L112.6 0.7C113 0.3 112.9 0 112.3 0H109.6C109 0 108.2 0.3 107.8 0.7L102.8 5.7C102.4 6.1 102.4 6.8 102.8 7.2L103.7 8.1Z" fill="#19193E"/>
<path d="M100 4.4C100.4 4.8 101.1 4.8 101.5 4.4L105.2 0.7C105.6 0.3 105.5 0 104.9 0H96.6001C96.0001 0 95.9001 0.3 96.3001 0.7L100 4.4Z" fill="#19193E"/>
<path d="M107.4 11.9C107.8 12.3 108.5 12.3 108.9 11.9L120 0.8C120.4 0.4 120.3 0.1 119.7 0.1H117C116.4 0.1 115.6 0.4 115.2 0.8L106.5 9.5C106.1 9.9 106.1 10.6 106.5 11L107.4 11.9Z" fill="#19193E"/>
</svg>
