<svg width="35" height="36" viewBox="0 0 35 36" fill="none" xmlns="http://www.w3.org/2000/svg">
<path d="M23.2074 34.4951C22.7056 33.9933 21.9529 33.2406 21.4511 32.7389C20.9493 32.2371 20.1966 31.4844 19.6948 30.9826L18.5658 29.8536L16.8095 28.0973C16.3077 27.5955 15.555 26.8428 15.0533 26.341L13.9242 25.212C13.4224 24.7102 12.6697 23.9575 12.168 23.4557C11.6662 22.9539 10.9135 22.2012 10.4117 21.6994L9.15721 20.5704C8.65542 20.0686 7.90274 19.3159 7.40095 18.8141C6.89916 18.3124 6.14646 17.5597 5.64467 17.0579L4.51564 15.9288C4.01385 15.4271 3.26115 14.6744 2.75936 14.1726C2.25757 13.6708 1.50489 12.9181 1.0031 12.4163C0.501309 11.9145 0.124969 12.04 0.124969 12.7927V16.1797C0.124969 16.9324 0.250413 17.5597 0.375861 17.6851C0.501309 17.8106 1.00309 18.3124 1.50488 18.8141L2.63393 19.9432C3.13572 20.445 3.8884 21.1977 4.39019 21.6994C4.89198 22.2012 5.64468 22.9539 6.14647 23.4557L7.27549 24.5847C7.77728 25.0865 8.52996 25.8392 9.03176 26.341C9.53355 26.8428 10.2862 27.5955 10.788 28.0973L11.9171 29.2263C12.4189 29.7281 13.1715 30.4808 13.6733 30.9826C14.1751 31.4844 14.9278 32.2371 15.4296 32.7389L16.5586 33.8679C17.0604 34.3697 17.5622 34.8715 17.6877 34.9969C17.8131 35.1224 18.5658 35.2478 19.193 35.2478H22.5801C23.4583 35.3733 23.7092 34.9969 23.2074 34.4951Z" fill="white"/>
<path d="M27.8495 29.8545C27.3477 29.3527 26.5951 28.6 26.0933 28.0982C25.5915 27.5964 24.8388 26.8437 24.337 26.3419L23.208 25.2129C22.7062 24.7111 21.9535 23.9584 21.4517 23.4566C20.9499 22.9548 20.1972 22.2022 19.6954 21.7004L18.5664 20.5713C18.0646 20.0695 17.3119 19.3169 16.8101 18.8151C16.3083 18.3133 15.5556 17.5606 15.0539 17.0588L13.9248 15.9298C13.423 15.428 12.6703 14.6753 12.1685 14.1735C11.6668 13.6717 10.9141 12.919 10.4123 12.4172L9.28327 11.2882C8.78147 10.7864 8.02878 10.0337 7.52698 9.53192C7.02519 9.03013 6.27251 8.27745 5.77072 7.77565L1.12916 3.13408C0.627366 2.63229 0.251007 2.75774 0.251007 3.51043V6.89752C0.251007 7.65021 0.627366 8.65379 1.12916 9.15558L2.75996 10.7864C3.26175 11.2882 4.01445 12.0409 4.51624 12.5427C5.01804 13.0445 5.77071 13.7972 6.27251 14.2989L7.40155 15.428C7.90334 15.9298 8.65602 16.6825 9.15781 17.1842L10.9141 18.9405L12.0431 20.0695C12.5449 20.5713 13.2976 21.324 13.7994 21.8258C14.3012 22.3276 15.0539 23.0803 15.5557 23.5821L16.6847 24.7111C17.1865 25.2129 17.9391 25.9656 18.4409 26.4674C18.9427 26.9692 19.6954 27.7219 20.1972 28.2237L21.3262 29.3527C21.828 29.8545 22.5807 30.6072 23.0825 31.109C23.5843 31.6107 24.337 32.3634 24.8388 32.8652L26.4696 34.496C26.9714 34.9978 27.975 35.3742 28.7277 35.3742H32.1148C32.8675 35.3742 32.9929 34.9978 32.4911 34.496L27.8495 29.8545Z" fill="white"/>
<path d="M0.124969 34.1204C0.124969 34.8731 0.752197 35.5003 1.50488 35.5003H4.1393C4.89198 35.5003 5.01743 35.124 4.51564 34.6222L2.75936 32.8659C2.25757 32.3641 1.50489 31.6115 1.0031 31.1097C0.501309 30.6079 0.124969 30.7333 0.124969 31.486V34.1204Z" fill="white"/>
<path d="M25.968 24.7102C26.4698 25.212 27.348 25.212 27.8498 24.7102L34.1222 18.4378C34.6239 17.936 35.0003 16.9324 35.0003 16.1797V12.7927C35.0003 12.04 34.6239 11.9145 34.1222 12.4163L24.839 21.6994C24.3372 22.2012 24.3372 23.0794 24.839 23.5812L25.968 24.7102Z" fill="white"/>
<path d="M0.125333 25.4634C0.125333 26.2161 0.250777 26.8433 0.376225 26.9688C0.501673 27.0942 1.00346 27.596 1.50525 28.0978L2.63429 29.2268C3.13608 29.7286 3.88876 30.4813 4.39055 30.9831C4.89234 31.4849 5.64504 32.2376 6.14683 32.7394L7.27586 33.8684C7.77765 34.3702 8.27943 34.872 8.40488 34.9974C8.53033 35.1229 9.28303 35.2483 9.91027 35.2483H13.2974C14.05 35.2483 14.1755 34.872 13.6737 34.3702C13.1719 33.8684 12.4192 33.1157 11.9174 32.6139C11.4156 32.1121 10.663 31.3594 10.1612 30.8577L9.03212 29.7286C8.53033 29.2268 7.77765 28.4741 7.27586 27.9724C6.77406 27.4706 6.02139 26.7179 5.51959 26.2161L4.39055 25.0871C3.88876 24.5853 3.13608 23.8326 2.63429 23.3308C2.1325 22.829 1.3798 22.0763 0.878009 21.5745C0.376218 21.0727 -0.00012207 21.1982 -0.00012207 21.9509V25.4634H0.125333Z" fill="white"/>
<path d="M29.4801 26.343C28.9783 26.8448 28.9783 27.723 29.4801 28.2248L34.1217 32.8663C34.6235 33.3681 34.9998 33.2427 34.9998 32.49V22.0778C34.9998 21.3251 34.6235 21.1997 34.1217 21.7015L29.4801 26.343Z" fill="white"/>
<path d="M21.3259 20.0695C21.8277 20.5713 22.7058 20.5713 23.2076 20.0695L34.1216 9.15558C34.6234 8.65379 34.9997 7.6502 34.9997 6.89752V3.51043C34.9997 2.75774 34.6234 2.63229 34.1216 3.13408L20.1969 17.0588C19.6951 17.5606 19.6951 18.4387 20.1969 18.9405L21.3259 20.0695Z" fill="white"/>
<path d="M12.0426 10.6613C12.5444 11.1631 13.4225 11.1631 13.9243 10.6613L23.2074 1.37813C23.7092 0.876343 23.5838 0.5 22.8311 0.5H19.444C18.6913 0.5 17.6877 0.876343 17.1859 1.37813L10.9135 7.65052C10.4118 8.15232 10.4118 9.03045 10.9135 9.53224L12.0426 10.6613Z" fill="white"/>
<path d="M7.40204 6.0197C7.90383 6.5215 8.78197 6.5215 9.28376 6.0197L13.9253 1.37813C14.4271 0.876344 14.3017 0.5 13.549 0.5H3.1368C2.38411 0.5 2.25866 0.876344 2.76045 1.37813L7.40204 6.0197Z" fill="white"/>
<path d="M16.6846 15.4298C17.1864 15.9316 18.0645 15.9316 18.5663 15.4298L32.491 1.50509C32.9928 1.0033 32.8674 0.626953 32.1147 0.626953H28.7276C27.9749 0.626953 26.9713 1.0033 26.4695 1.50509L15.5556 12.419C15.0538 12.9208 15.0538 13.799 15.5556 14.3008L16.6846 15.4298Z" fill="white"/>
</svg>
