<svg width="95" height="95" viewBox="0 0 95 95" fill="none" xmlns="http://www.w3.org/2000/svg">
<path d="M70.75 71C83.7287 58.0213 83.7287 36.9787 70.75 24C57.7713 11.0213 36.7287 11.0213 23.75 24C10.7713 36.9787 10.7713 58.0213 23.75 71C36.7287 83.9787 57.7713 83.9787 70.75 71Z" fill="#285AA3"/>
<path d="M24.5 74.6122V20.0811H62.6155V74.6122H24.5Z" fill="#FFFDFD" stroke="#F2F2F2"/>
<path d="M28.1743 19.5684V17.6456C28.1743 17.3417 28.295 17.0504 28.5098 16.8355C28.7247 16.6207 29.016 16.5 29.3199 16.5V16.5C29.4703 16.5 29.6193 16.5296 29.7583 16.5872C29.8972 16.6448 30.0235 16.7291 30.1299 16.8355C30.2363 16.9419 30.3207 17.0682 30.3782 17.2072C30.4358 17.3462 30.4654 17.4951 30.4654 17.6456V22.686C30.4654 22.7762 30.4476 22.8656 30.4131 22.949C30.3786 23.0324 30.3279 23.1082 30.2641 23.172C30.2003 23.2358 30.1245 23.2864 30.0411 23.321C29.9577 23.3555 29.8684 23.3733 29.7781 23.3733C29.6878 23.3733 29.5985 23.3555 29.5151 23.321C29.4317 23.2864 29.3559 23.2358 29.2921 23.172C29.2282 23.1082 29.1776 23.0324 29.1431 22.949C29.1085 22.8656 29.0908 22.7762 29.0908 22.686V18.161" stroke="#707070" stroke-miterlimit="10"/>
<path fill-rule="evenodd" clip-rule="evenodd" d="M42.9449 27.9536C43.175 27.9586 43.3574 28.1491 43.3525 28.3792C43.3476 28.601 43.1703 28.7786 42.9513 28.7865L42.9268 28.7867L30.8436 28.5244C30.6135 28.5194 30.4311 28.3288 30.4361 28.0988C30.4409 27.8769 30.6182 27.6993 30.8372 27.6914L30.8617 27.6912L42.9449 27.9536Z" fill="#285AA3"/>
<path fill-rule="evenodd" clip-rule="evenodd" d="M47.7487 30.1865C47.9787 30.1916 48.1611 30.3822 48.156 30.6123C48.1511 30.8341 47.9737 31.0116 47.7547 31.0194L47.7302 31.0196L35.6342 30.7519C35.4041 30.7468 35.2217 30.5562 35.2268 30.3261C35.2317 30.1043 35.4092 29.9268 35.6281 29.9189L35.6526 29.9188L47.7487 30.1865Z" fill="#285AA3"/>
<path fill-rule="evenodd" clip-rule="evenodd" d="M33.3256 29.8648C33.5557 29.8695 33.7383 30.0599 33.7336 30.2899C33.729 30.5118 33.5519 30.6896 33.333 30.6978L33.3085 30.698L30.8459 30.6474C30.6158 30.6426 30.4331 30.4523 30.4378 30.2222C30.4424 30.0004 30.6196 29.8226 30.8385 29.8144L30.863 29.8142L33.3256 29.8648Z" fill="#285AA3"/>
<path fill-rule="evenodd" clip-rule="evenodd" d="M34.8861 37.4713C35.1162 37.4758 35.299 37.666 35.2945 37.8961C35.2902 38.1179 35.1132 38.2959 34.8943 38.3043L34.8698 38.3045L30.6743 38.2222C30.4442 38.2177 30.2613 38.0275 30.2658 37.7975C30.2702 37.5756 30.4472 37.3977 30.6661 37.3893L30.6906 37.389L34.8861 37.4713Z" fill="#285AA3"/>
<path fill-rule="evenodd" clip-rule="evenodd" d="M38.214 35.1289C38.4441 35.1338 38.6267 35.3243 38.6218 35.5543C38.6171 35.7762 38.4398 35.9539 38.2209 35.9619L38.1964 35.9621L30.721 35.8038C30.4909 35.7989 30.3084 35.6085 30.3133 35.3784C30.318 35.1566 30.4952 34.9789 30.7142 34.9709L30.7387 34.9707L38.214 35.1289Z" fill="#285AA3"/>
<path fill-rule="evenodd" clip-rule="evenodd" d="M34.992 32.3532C35.2221 32.3584 35.4043 32.5491 35.3991 32.7792C35.3941 33.001 35.2165 33.1785 34.9976 33.1862L34.9731 33.1863L30.7829 33.0912C30.5529 33.086 30.3706 32.8953 30.3758 32.6652C30.3809 32.4434 30.5584 32.266 30.7774 32.2582L30.8019 32.2581L34.992 32.3532Z" fill="#285AA3"/>
<path fill-rule="evenodd" clip-rule="evenodd" d="M43.8331 32.5391C44.0632 32.544 44.2458 32.7345 44.2409 32.9646C44.2362 33.1864 44.0589 33.3641 43.84 33.3721L43.8155 33.3723L36.8326 33.2241C36.6025 33.2193 36.42 33.0288 36.4249 32.7987C36.4296 32.5769 36.6068 32.3992 36.8258 32.3912L36.8503 32.391L43.8331 32.5391Z" fill="#285AA3"/>
<path fill-rule="evenodd" clip-rule="evenodd" d="M50.7634 44.6545L49.5249 47.1241L44.5867 71.7878L46.0159 72.0781L50.9568 47.4007L50.7634 44.6545Z" fill="#285AA3"/>
<path fill-rule="evenodd" clip-rule="evenodd" d="M48.5145 65.0424C48.7347 65.0824 48.8835 65.2873 48.8566 65.5067L48.8529 65.5311L47.7618 71.5314C47.7211 71.7551 47.5106 71.9044 47.2884 71.8723L47.2645 71.8681L44.6784 71.3429C44.4509 71.2967 44.3039 71.0748 44.3501 70.8473C44.3947 70.6279 44.6026 70.4833 44.8214 70.5147L44.8457 70.519L47.0113 70.9587L48.0257 65.3807C48.0657 65.1605 48.2706 65.0117 48.49 65.0386L48.5145 65.0424Z" fill="#285AA3"/>
<path fill-rule="evenodd" clip-rule="evenodd" d="M48.1385 55.6863L48.9279 55.8466C49.2682 55.9157 49.5957 55.6988 49.662 55.3721L50.9164 49.4051C50.9855 49.0648 50.7686 48.7373 50.4419 48.671L49.6525 48.5106C49.3122 48.4415 48.9847 48.6584 48.9183 48.9851L47.664 54.9521C47.5948 55.2924 47.8118 55.6199 48.1385 55.6863Z" fill="#285AA3"/>
<path fill-rule="evenodd" clip-rule="evenodd" d="M47.3188 62.2197C47.537 62.2699 47.6762 62.4814 47.6392 62.6993L47.6343 62.7236L46.9058 65.892C46.8538 66.1183 46.6282 66.2595 46.4019 66.2075C46.1837 66.1573 46.0446 65.9458 46.0816 65.7279L46.0864 65.7036L46.815 62.5352C46.867 62.3089 47.0926 62.1677 47.3188 62.2197Z" fill="#285AA3"/>
<path fill-rule="evenodd" clip-rule="evenodd" d="M44.8585 37.5592L43.9628 40.1551L42.3492 65.2673L43.8034 65.3642L45.4171 40.252L44.8585 37.5592Z" fill="#285AA3"/>
<g style="mix-blend-mode:multiply">
<path d="M51.5332 69.1246V23.5101L44.2053 22.2344L36.4858 69.1246H51.5332Z" fill="#CCCCCC"/>
</g>
<path d="M79.3562 29.7227L45.7031 24.2295L38.1279 70.6379L71.781 76.1311L79.3562 29.7227Z" fill="white"/>
<path fill-rule="evenodd" clip-rule="evenodd" d="M70.1876 51.4228L63.5023 54.3981L68.3723 59.2968C68.6541 59.5801 68.6557 60.0437 68.3751 60.3326C68.2088 60.5041 67.9784 60.5753 67.7607 60.5439C67.6141 60.5228 67.472 60.455 67.3584 60.341L62.0797 55.0311L59.687 56.096L57.322 54.268L50.6474 57.936C50.507 58.0135 50.3523 58.0386 50.2057 58.0175C49.9872 57.9861 49.7863 57.8528 49.6744 57.6413C49.4874 57.285 49.6196 56.8408 49.9698 56.6484L56.0663 53.2976L50.3336 48.866C50.0179 48.6222 49.9576 48.1628 50.1986 47.8408C50.4398 47.518 50.8908 47.4527 51.2078 47.6981L59.8919 54.4099L69.6172 50.0818C69.982 49.9189 70.4059 50.0873 70.5625 50.4584C70.7198 50.8289 70.5516 51.2606 70.1876 51.4228ZM70.2794 48.9478L51.0727 46.1837C50.6365 46.1209 50.2317 46.4297 50.1677 46.8742L48.5474 58.1334C48.4834 58.5778 48.7846 58.9883 49.2209 59.0511L68.4276 61.8152C68.8645 61.8781 69.2692 61.5693 69.3332 61.1248L70.9536 49.8656C71.0176 49.4211 70.7163 49.0107 70.2794 48.9478Z" fill="#285AA3"/>
</svg>
