<svg width="95" height="95" viewBox="0 0 95 95" fill="none" xmlns="http://www.w3.org/2000/svg">
<g id="Group 42331">
<path id="Vector" d="M70.6667 71C83.6454 58.0213 83.6454 36.9787 70.6667 24C57.688 11.0213 36.6454 11.0213 23.6667 24C10.6881 36.9787 10.6881 58.0213 23.6667 71C36.6454 83.9787 57.688 83.9787 70.6667 71Z" fill="#285AA3"/>
<g id="Group 42329">
<g id="Group 42313">
<path id="Vector_2" d="M55.124 17.1895L19.3375 17.1895V72.3717H55.124V17.1895Z" fill="#FAFAFA"/>
<path id="Vector_3" d="M33.8915 28.7828C33.8652 28.7106 33.2393 25.4225 33.1668 24.1459C33.0944 22.8692 35.4134 22.6825 35.4134 22.6825C35.4134 22.6825 37.3107 21.7491 38.6876 22.2309C39.9336 22.6473 40.9742 23.4596 41.6193 24.5192C42.2452 25.5249 41.0659 28.6564 41.0659 28.6564L33.8915 28.7828Z" fill="#2E2D3D"/>
<path id="Vector_4" d="M29.5898 39.3391C29.5767 39.2849 29.7479 37.9902 29.7545 37.942C30.0708 35.214 33.7469 34.4492 37.4099 34.4492C41.7185 34.4492 44.637 35.1719 45.1048 38.0022C45.1179 38.0865 45.3683 39.3813 45.3551 39.4716C37.3704 39.5679 29.5898 39.3391 29.5898 39.3391Z" fill="#D5E1E8"/>
<path id="Vector_5" d="M38.1497 36.5632C37.7214 37.1413 37.4118 37.1654 36.9506 36.5632C36.5817 36.0874 35.3497 35.0035 35.3497 34.4494L35.857 28.9694C35.857 28.7043 35.9722 28.45 36.1773 28.2625C36.3824 28.075 36.6606 27.9697 36.9506 27.9697H38.1497C38.4392 27.9713 38.7163 28.0771 38.9211 28.2643C39.1258 28.4514 39.2416 28.7047 39.2433 28.9694L39.4805 34.4494C39.4805 35.0035 38.5318 36.0513 38.1497 36.5632Z" fill="#F09959"/>
<path id="Vector_6" d="M38.1464 27.9697H36.9474C36.6573 27.9697 36.3792 28.075 36.1741 28.2625C35.969 28.45 35.8538 28.7043 35.8538 28.9694L35.4124 33.8292C36.7629 34.2266 38.5878 33.4257 39.3916 32.5465L39.24 28.9694C39.2383 28.7047 39.1225 28.4514 38.9178 28.2643C38.7131 28.0771 38.4359 27.9713 38.1464 27.9697Z" fill="#E38540"/>
<path id="Vector_7" d="M33.4158 34.8525L35.3461 38.1105C35.3461 38.1105 36.3804 37.3336 36.4792 37.4842C36.578 37.6347 36.2948 39.5557 36.2948 39.5557C36.2948 39.5557 38.594 39.5859 38.6928 39.4955C38.7916 39.4052 38.2251 37.4059 38.4622 37.4059C38.6994 37.4059 39.3912 37.984 39.3912 37.984L41.5455 34.8525L41.0711 34.7441L37.5465 36.4785L33.7715 34.7803L33.4158 34.8525Z" fill="#BDCCD4"/>
<path id="Vector_8" d="M35.6249 36.3509L37.0545 37.2301L36.6131 39.5606L38.5434 39.4583L38.0625 37.3385L39.2483 36.3509L38.6949 35.8691H36.1849L35.6249 36.3509Z" fill="#D54A41"/>
<path id="Vector_9" d="M35.4455 33.2502L33.6733 34.7918C33.6733 34.7918 35.4785 37.7245 35.5773 37.7245C35.6761 37.7245 37.1123 36.1106 37.1123 36.1106L38.0281 36.0926L39.4774 37.4836L41.1574 34.7617L39.4445 33.0996C39.4445 33.0996 37.9754 35.6891 37.7118 35.7493C37.4483 35.8095 37.4417 35.8396 37.2243 35.6891C37.0069 35.5385 35.4455 33.2502 35.4455 33.2502Z" fill="#D5E1E8"/>
<path id="Vector_10" d="M37.5465 32.5513C39.555 32.5513 41.1831 30.5238 41.1831 28.0227C41.1831 25.5216 39.555 23.4941 37.5465 23.4941C35.5381 23.4941 33.9099 25.5216 33.9099 28.0227C33.9099 30.5238 35.5381 32.5513 37.5465 32.5513Z" fill="#F09959"/>
<path id="Vector_11" d="M34.2859 27.9565C34.6219 28.6069 34.5099 29.3054 34.0355 29.5162C33.5612 29.7269 32.8958 29.3596 32.5532 28.7032C32.2106 28.0468 32.3226 27.3543 32.8036 27.1435C33.2845 26.9327 33.9433 27.3001 34.2859 27.9565Z" fill="#F09959"/>
<path id="Vector_12" d="M40.6432 27.9575C40.3072 28.6078 40.4192 29.3064 40.8936 29.5172C41.3679 29.7279 42.0333 29.3606 42.3759 28.7042C42.7185 28.0478 42.5999 27.3552 42.1256 27.1445C41.6512 26.9337 40.9858 27.301 40.6432 27.9575Z" fill="#F09959"/>
<path id="Vector_13" d="M35.4137 24.9454C36.9157 23.9879 37.5877 24.1444 38.7143 25.7222C39.8409 27.3 41.1848 27.3241 41.1848 27.3241L41.3561 25.6921C41.3561 25.6921 39.6827 22.7293 37.4362 23.1147C35.1897 23.5001 33.9116 25.3549 33.9116 25.3549C33.9116 25.3549 33.7996 28.8175 34.1158 28.938C34.432 29.0584 34.465 27.8179 34.689 27.571C34.913 27.3241 34.465 26.1317 34.768 25.5837C35.0711 25.0357 35.4137 24.9454 35.4137 24.9454Z" fill="#2E2D3D"/>
<path id="Vector_14" d="M40.2375 26.7227C40.758 27.2466 40.5604 29.3302 40.8371 29.3061C41.1138 29.282 41.2126 27.3188 41.1335 27.1141C41.0545 26.9093 40.2375 26.7227 40.2375 26.7227Z" fill="#2E2D3D"/>
<path id="Vector_15" d="M45.6323 46.499H28.9381C28.6551 46.499 28.3836 46.3962 28.1834 46.2132C27.9833 46.0303 27.8708 45.7822 27.8708 45.5234C27.8708 45.2647 27.9833 45.0165 28.1834 44.8336C28.3836 44.6506 28.6551 44.5479 28.9381 44.5479H45.6323C45.9154 44.5479 46.1868 44.6506 46.387 44.8336C46.5871 45.0165 46.6996 45.2647 46.6996 45.5234C46.6996 45.7822 46.5871 46.0303 46.387 46.2132C46.1868 46.3962 45.9154 46.499 45.6323 46.499Z" fill="#4790F6"/>
<path id="Vector_16" d="M43.5552 49.497H31.0115C30.7284 49.497 30.457 49.3943 30.2568 49.2113C30.0567 49.0283 29.9442 48.7802 29.9442 48.5215C29.9442 48.2627 30.0567 48.0146 30.2568 47.8316C30.457 47.6487 30.7284 47.5459 31.0115 47.5459H43.5552C43.8382 47.5459 44.1097 47.6487 44.3099 47.8316C44.51 48.0146 44.6225 48.2627 44.6225 48.5215C44.6225 48.7802 44.51 49.0283 44.3099 49.2113C44.1097 49.3943 43.8382 49.497 43.5552 49.497Z" fill="#4790F6"/>
<path id="Vector_17" d="M53.3022 55.6321H22.7863C22.622 55.6321 22.4645 55.5725 22.3484 55.4663C22.2322 55.3602 22.167 55.2162 22.167 55.0661C22.167 54.9159 22.2322 54.772 22.3484 54.6658C22.4645 54.5596 22.622 54.5 22.7863 54.5H53.3022C53.4665 54.5 53.624 54.5596 53.7401 54.6658C53.8563 54.772 53.9215 54.9159 53.9215 55.0661C53.9215 55.2162 53.8563 55.3602 53.7401 55.4663C53.624 55.5725 53.4665 55.6321 53.3022 55.6321Z" fill="#4790F6"/>
<path id="Vector_18" d="M53.3022 58.264H22.7863C22.7049 58.264 22.6244 58.2493 22.5493 58.2209C22.4742 58.1924 22.4059 58.1507 22.3484 58.0982C22.2909 58.0456 22.2453 57.9832 22.2141 57.9145C22.183 57.8459 22.167 57.7722 22.167 57.6979C22.167 57.6236 22.183 57.55 22.2141 57.4813C22.2453 57.4126 22.2909 57.3502 22.3484 57.2976C22.4059 57.2451 22.4742 57.2034 22.5493 57.1749C22.6244 57.1465 22.7049 57.1318 22.7863 57.1318H53.3022C53.4665 57.1318 53.624 57.1915 53.7401 57.2976C53.8563 57.4038 53.9215 57.5478 53.9215 57.6979C53.9215 57.848 53.8563 57.992 53.7401 58.0982C53.624 58.2043 53.4665 58.264 53.3022 58.264Z" fill="#4790F6"/>
<path id="Vector_19" d="M53.3025 60.8948H22.7865C22.6223 60.8948 22.4648 60.8352 22.3486 60.729C22.2325 60.6229 22.1672 60.4789 22.1672 60.3288C22.1672 60.1786 22.2325 60.0347 22.3486 59.9285C22.4648 59.8223 22.6223 59.7627 22.7865 59.7627H53.3025C53.4667 59.7627 53.6242 59.8223 53.7404 59.9285C53.8565 60.0347 53.9218 60.1786 53.9218 60.3288C53.9218 60.4789 53.8565 60.6229 53.7404 60.729C53.6242 60.8352 53.4667 60.8948 53.3025 60.8948Z" fill="#4790F6"/>
<path id="Vector_20" d="M48.2732 39.8572H26.2953C26.035 39.8572 25.7853 39.7627 25.6012 39.5944C25.4171 39.4261 25.3137 39.1979 25.3137 38.9599V20.4422C25.3137 20.2042 25.4171 19.976 25.6012 19.8077C25.7853 19.6395 26.035 19.5449 26.2953 19.5449H48.2732C48.5341 19.5449 48.7845 19.6393 48.9696 19.8074C49.1548 19.9755 49.2596 20.2037 49.2614 20.4422V38.9599C49.2596 39.1985 49.1548 39.4267 48.9696 39.5948C48.7845 39.7629 48.5341 39.8572 48.2732 39.8572ZM26.2953 20.1471C26.2097 20.1471 26.1276 20.1782 26.0671 20.2335C26.0065 20.2889 25.9725 20.3639 25.9725 20.4422V38.9599C25.9725 39.0382 26.0065 39.1133 26.0671 39.1686C26.1276 39.2239 26.2097 39.255 26.2953 39.255H48.2732C48.3594 39.255 48.4422 39.2241 48.5038 39.169C48.5654 39.1138 48.6009 39.0387 48.6026 38.9599V20.4422C48.6009 20.3634 48.5654 20.2883 48.5038 20.2332C48.4422 20.178 48.3594 20.1471 48.2732 20.1471H26.2953Z" fill="#C6C6C6"/>
<path id="Vector_21" d="M42.456 52.0449L43.0884 53.2192L44.5115 53.4119L43.4837 54.3273L43.7275 55.622L42.456 55.0138L41.1845 55.622L41.4283 54.3273L40.3939 53.4119L41.817 53.2192L42.456 52.0449Z" fill="#4790F6"/>
<path id="Vector_22" d="M47.7475 52.0449L48.3865 53.2192L49.8096 53.4119L48.7818 54.3273L49.0256 55.622L47.7475 55.0138L46.476 55.622L46.7198 54.3273L45.692 53.4119L47.115 53.2192L47.7475 52.0449Z" fill="#4790F6"/>
</g>
<g id="Vector_23" style="mix-blend-mode:multiply">
<path d="M50.2141 70.3903V24.7757L42.8862 23.5L35.1667 70.3903H50.2141Z" fill="#CCCCCC"/>
</g>
<g id="Group 4881">
<g id="Skill Assesment">
<path id="path540" d="M71.8879 75.7829L38.1132 71.084L44.5924 24.5125L78.3671 29.2114L71.8879 75.7829Z" fill="white"/>
</g>
<g id="Group 42331_2">
<g id="system">
<path id="Vector_24" d="M58.2116 62.6459C65.1296 62.6459 70.7377 57.0378 70.7377 50.1198C70.7377 43.2019 65.1296 37.5938 58.2116 37.5938C51.2937 37.5938 45.6855 43.2019 45.6855 50.1198C45.6855 57.0378 51.2937 62.6459 58.2116 62.6459Z" stroke="#2E77E6" stroke-miterlimit="16" stroke-dasharray="25 5"/>
<path id="Vector_25" d="M62.7529 56.541H53.4285C53.1146 56.541 52.8602 56.7954 52.8602 57.1092V64.932C52.8602 65.2458 53.1146 65.5002 53.4285 65.5002H62.7529C63.0668 65.5002 63.3212 65.2458 63.3212 64.932V57.1092C63.3212 56.7954 63.0668 56.541 62.7529 56.541Z" fill="#285AA3"/>
<path id="Vector_26" d="M61.2578 61.9506H54.9515C54.8521 61.9503 54.7568 61.9107 54.6865 61.8404C54.6162 61.7701 54.5766 61.6748 54.5763 61.5754C54.5766 61.476 54.6162 61.3807 54.6865 61.3104C54.7568 61.2401 54.8521 61.2005 54.9515 61.2002H61.2578C61.3572 61.2005 61.4525 61.2401 61.5228 61.3104C61.5931 61.3807 61.6327 61.476 61.633 61.5754C61.6327 61.6748 61.5931 61.7701 61.5228 61.8404C61.4525 61.9107 61.3572 61.9503 61.2578 61.9506Z" fill="white"/>
<path id="Vector_27" d="M61.2578 63.1586H54.9515C54.8521 63.1583 54.7568 63.1187 54.6865 63.0484C54.6162 62.9781 54.5766 62.8828 54.5763 62.7834C54.5766 62.684 54.6162 62.5887 54.6865 62.5184C54.7568 62.4481 54.8521 62.4085 54.9515 62.4082H61.2578C61.3572 62.4085 61.4525 62.4481 61.5228 62.5184C61.5931 62.5887 61.6327 62.684 61.633 62.7834C61.6327 62.8828 61.5931 62.9781 61.5228 63.0484C61.4525 63.1187 61.3572 63.1583 61.2578 63.1586Z" fill="white"/>
<path id="Vector_28" d="M56.129 62.8167C56.129 62.8428 56.1212 62.8683 56.1067 62.8901C56.0922 62.9118 56.0715 62.9287 56.0474 62.9387C56.0233 62.9487 55.9967 62.9513 55.9711 62.9462C55.9455 62.9411 55.9219 62.9285 55.9034 62.9101C55.885 62.8916 55.8724 62.8681 55.8673 62.8424C55.8622 62.8168 55.8648 62.7903 55.8748 62.7661C55.8848 62.742 55.9017 62.7213 55.9235 62.7068C55.9452 62.6923 55.9707 62.6846 55.9968 62.6846C56.0142 62.6846 56.0314 62.688 56.0474 62.6946C56.0634 62.7013 56.078 62.711 56.0903 62.7233C56.1025 62.7355 56.1123 62.7501 56.1189 62.7661C56.1255 62.7821 56.129 62.7993 56.129 62.8167Z" fill="#80B2FF"/>
<path id="Vector_29" d="M56.5819 62.8167C56.5819 62.8428 56.5742 62.8683 56.5597 62.8901C56.5452 62.9118 56.5245 62.9287 56.5004 62.9387C56.4763 62.9487 56.4497 62.9513 56.4241 62.9462C56.3985 62.9411 56.3749 62.9285 56.3564 62.9101C56.338 62.8916 56.3254 62.8681 56.3203 62.8424C56.3152 62.8168 56.3178 62.7902 56.3278 62.7661C56.3378 62.742 56.3547 62.7213 56.3765 62.7068C56.3982 62.6923 56.4237 62.6846 56.4498 62.6846C56.4672 62.6846 56.4844 62.688 56.5004 62.6946C56.5164 62.7013 56.531 62.711 56.5433 62.7233C56.5555 62.7355 56.5653 62.7501 56.5719 62.7661C56.5785 62.7821 56.5819 62.7993 56.5819 62.8167Z" fill="#80B2FF"/>
<path id="Vector_30" d="M57.0348 62.8167C57.0348 62.8428 57.0271 62.8683 57.0126 62.8901C56.9981 62.9118 56.9774 62.9287 56.9533 62.9387C56.9291 62.9487 56.9026 62.9513 56.877 62.9462C56.8513 62.9411 56.8278 62.9285 56.8093 62.9101C56.7908 62.8916 56.7783 62.8681 56.7732 62.8424C56.7681 62.8168 56.7707 62.7903 56.7807 62.7661C56.7907 62.742 56.8076 62.7213 56.8293 62.7068C56.8511 62.6923 56.8766 62.6846 56.9027 62.6846C56.9201 62.6846 56.9373 62.688 56.9533 62.6946C56.9693 62.7013 56.9839 62.711 56.9961 62.7233C57.0084 62.7355 57.0181 62.7501 57.0248 62.7661C57.0314 62.7821 57.0348 62.7993 57.0348 62.8167Z" fill="#80B2FF"/>
<path id="Vector_31" d="M57.4877 62.8167C57.4877 62.8428 57.48 62.8683 57.4654 62.8901C57.4509 62.9118 57.4303 62.9287 57.4062 62.9387C57.382 62.9487 57.3555 62.9513 57.3298 62.9462C57.3042 62.9411 57.2807 62.9285 57.2622 62.9101C57.2437 62.8916 57.2311 62.8681 57.226 62.8424C57.221 62.8168 57.2236 62.7902 57.2336 62.7661C57.2436 62.742 57.2605 62.7213 57.2822 62.7068C57.3039 62.6923 57.3295 62.6846 57.3556 62.6846C57.373 62.6846 57.3901 62.688 57.4062 62.6946C57.4222 62.7013 57.4367 62.711 57.449 62.7233C57.4613 62.7355 57.471 62.7501 57.4777 62.7661C57.4843 62.7821 57.4877 62.7993 57.4877 62.8167Z" fill="#80B2FF"/>
<path id="Vector_32" d="M57.9407 62.8167C57.9407 62.8428 57.933 62.8683 57.9184 62.8901C57.9039 62.9118 57.8833 62.9287 57.8592 62.9387C57.835 62.9487 57.8085 62.9513 57.7828 62.9462C57.7572 62.9411 57.7337 62.9285 57.7152 62.9101C57.6967 62.8916 57.6841 62.8681 57.6791 62.8424C57.674 62.8168 57.6766 62.7903 57.6866 62.7661C57.6966 62.742 57.7135 62.7213 57.7352 62.7068C57.7569 62.6923 57.7825 62.6846 57.8086 62.6846C57.826 62.6846 57.8431 62.688 57.8592 62.6946C57.8752 62.7013 57.8898 62.711 57.902 62.7233C57.9143 62.7355 57.924 62.7501 57.9307 62.7661C57.9373 62.7821 57.9407 62.7993 57.9407 62.8167Z" fill="#80B2FF"/>
<path id="Vector_33" d="M58.3936 62.8167C58.3936 62.8428 58.3858 62.8683 58.3713 62.8901C58.3568 62.9118 58.3362 62.9287 58.312 62.9387C58.2879 62.9487 58.2613 62.9513 58.2357 62.9462C58.2101 62.9411 58.1866 62.9285 58.1681 62.9101C58.1496 62.8916 58.137 62.8681 58.1319 62.8424C58.1268 62.8168 58.1295 62.7902 58.1394 62.7661C58.1494 62.742 58.1664 62.7213 58.1881 62.7068C58.2098 62.6923 58.2354 62.6846 58.2615 62.6846C58.2788 62.6846 58.296 62.688 58.312 62.6946C58.3281 62.7013 58.3426 62.711 58.3549 62.7233C58.3672 62.7355 58.3769 62.7501 58.3835 62.7661C58.3902 62.7821 58.3936 62.7993 58.3936 62.8167Z" fill="#80B2FF"/>
<path id="Vector_34" d="M58.8465 62.8167C58.8465 62.8428 58.8387 62.8683 58.8242 62.8901C58.8097 62.9118 58.7891 62.9287 58.7649 62.9387C58.7408 62.9487 58.7142 62.9513 58.6886 62.9462C58.663 62.9411 58.6394 62.9286 58.621 62.9101C58.6025 62.8916 58.5899 62.8681 58.5848 62.8424C58.5797 62.8168 58.5823 62.7903 58.5923 62.7661C58.6023 62.742 58.6193 62.7213 58.641 62.7068C58.6627 62.6923 58.6882 62.6846 58.7144 62.6846C58.7317 62.6846 58.7489 62.688 58.7649 62.6946C58.781 62.7013 58.7955 62.711 58.8078 62.7233C58.82 62.7355 58.8298 62.7501 58.8364 62.7661C58.8431 62.7821 58.8465 62.7993 58.8465 62.8167Z" fill="#80B2FF"/>
<path id="Vector_35" d="M59.2994 62.8167C59.2994 62.8428 59.2916 62.8683 59.2771 62.8901C59.2626 62.9118 59.2419 62.9287 59.2178 62.9387C59.1937 62.9487 59.1671 62.9513 59.1415 62.9462C59.1159 62.9411 59.0923 62.9285 59.0738 62.9101C59.0554 62.8916 59.0428 62.8681 59.0377 62.8424C59.0326 62.8168 59.0352 62.7902 59.0452 62.7661C59.0552 62.742 59.0721 62.7213 59.0939 62.7068C59.1156 62.6923 59.1411 62.6846 59.1673 62.6846C59.1846 62.6846 59.2018 62.688 59.2178 62.6946C59.2338 62.7013 59.2484 62.711 59.2607 62.7233C59.2729 62.7355 59.2827 62.7501 59.2893 62.7661C59.2959 62.7821 59.2994 62.7993 59.2994 62.8167Z" fill="#80B2FF"/>
<path id="Vector_36" d="M59.7522 62.8167C59.7522 62.8428 59.7445 62.8683 59.73 62.8901C59.7155 62.9118 59.6948 62.9287 59.6707 62.9387C59.6465 62.9487 59.62 62.9513 59.5944 62.9462C59.5687 62.9411 59.5452 62.9286 59.5267 62.9101C59.5083 62.8916 59.4957 62.8681 59.4906 62.8424C59.4855 62.8168 59.4881 62.7903 59.4981 62.7661C59.5081 62.742 59.525 62.7213 59.5467 62.7068C59.5685 62.6923 59.594 62.6846 59.6201 62.6846C59.6375 62.6846 59.6547 62.688 59.6707 62.6946C59.6867 62.7013 59.7013 62.711 59.7135 62.7233C59.7258 62.7355 59.7355 62.7501 59.7422 62.7661C59.7488 62.7821 59.7522 62.7993 59.7522 62.8167Z" fill="#80B2FF"/>
<path id="Vector_37" d="M58.1068 60.1503C58.9074 60.1503 59.5564 59.5013 59.5564 58.7006C59.5564 57.9 58.9074 57.251 58.1068 57.251C57.3061 57.251 56.6571 57.9 56.6571 58.7006C56.6571 59.5013 57.3061 60.1503 58.1068 60.1503Z" fill="white"/>
<path id="Vector_38" d="M58.1088 58.6421C58.1773 58.6415 58.2449 58.6256 58.3064 58.5954C58.368 58.5653 58.422 58.5217 58.4644 58.4679C58.5287 58.3876 58.5634 58.2876 58.5624 58.1848C58.5627 58.1248 58.5511 58.0654 58.5283 58.01C58.5055 57.9545 58.472 57.9041 58.4297 57.8616C58.3874 57.8191 58.3371 57.7854 58.2817 57.7624C58.2263 57.7394 58.1669 57.7275 58.107 57.7275C58.047 57.7275 57.9876 57.7394 57.9323 57.7624C57.8769 57.7854 57.8266 57.8191 57.7843 57.8616C57.742 57.9041 57.7084 57.9545 57.6857 58.01C57.6629 58.0654 57.6513 58.1248 57.6515 58.1848C57.6505 58.2876 57.6852 58.3877 57.7495 58.4679C57.7924 58.5221 57.847 58.5659 57.9092 58.5961C57.9714 58.6262 58.0397 58.6419 58.1088 58.6421Z" fill="#285AA3"/>
<path id="Vector_39" d="M58.9123 59.4569C58.9123 59.7455 57.3008 59.7455 57.3008 59.4569L57.3013 59.1206C57.365 58.6609 58.7813 58.6416 58.9126 59.1206L58.9123 59.4569Z" fill="#285AA3"/>
<path id="Vector_40" d="M55.2642 62.7146V62.6945C55.2642 62.6554 55.2487 62.6178 55.221 62.5901C55.1933 62.5624 55.1557 62.5469 55.1166 62.5469C55.0774 62.5469 55.0399 62.5624 55.0122 62.5901C54.9845 62.6178 54.969 62.6554 54.969 62.6945V62.7146H54.9465V62.9807C54.9465 63.0267 55.2875 63.0267 55.2875 62.9807V62.7146H55.2642ZM55.0216 62.6945C55.0213 62.6818 55.0236 62.6692 55.0283 62.6574C55.033 62.6455 55.04 62.6348 55.0489 62.6257C55.0578 62.6166 55.0684 62.6094 55.0801 62.6045C55.0918 62.5996 55.1044 62.597 55.1171 62.597C55.1298 62.597 55.1424 62.5996 55.1541 62.6045C55.1658 62.6094 55.1764 62.6166 55.1853 62.6257C55.1942 62.6348 55.2012 62.6455 55.2059 62.6574C55.2106 62.6692 55.2129 62.6818 55.2126 62.6945V62.7146H55.0216V62.6945ZM55.1417 62.8487V62.9255C55.1416 62.9288 55.1409 62.9319 55.1395 62.9349C55.1382 62.9379 55.1362 62.9405 55.1338 62.9427C55.1315 62.9449 55.1287 62.9466 55.1256 62.9477C55.1225 62.9488 55.1193 62.9493 55.1161 62.9492C55.1129 62.9493 55.1098 62.9488 55.1069 62.9476C55.1039 62.9465 55.1013 62.9447 55.0991 62.9425C55.0968 62.9403 55.0951 62.9376 55.094 62.9347C55.0928 62.9318 55.0923 62.9286 55.0924 62.9255V62.8487C55.0853 62.8448 55.0793 62.8392 55.0752 62.8322C55.071 62.8253 55.0688 62.8173 55.0688 62.8092C55.0687 62.801 55.0708 62.7929 55.0748 62.7858C55.0788 62.7786 55.0847 62.7726 55.0917 62.7684C55.0987 62.7641 55.1068 62.7618 55.115 62.7616C55.1232 62.7614 55.1313 62.7634 55.1385 62.7673C55.1458 62.7712 55.1519 62.7769 55.1562 62.7839C55.1605 62.7909 55.163 62.7989 55.1633 62.8071C55.1636 62.8153 55.1618 62.8234 55.158 62.8307C55.1542 62.838 55.1486 62.8442 55.1417 62.8487Z" fill="#5896FA"/>
<path id="Vector_41" d="M55.117 61.5484C55.1315 61.5483 55.1457 61.545 55.1587 61.5386C55.1717 61.5322 55.1831 61.523 55.1921 61.5117C55.2056 61.4948 55.2129 61.4736 55.2127 61.4519C55.2128 61.4393 55.2103 61.4268 55.2055 61.4151C55.2007 61.4034 55.1936 61.3927 55.1847 61.3837C55.1758 61.3748 55.1652 61.3677 55.1535 61.3628C55.1418 61.358 55.1293 61.3555 55.1166 61.3555C55.104 61.3555 55.0914 61.358 55.0798 61.3628C55.0681 61.3677 55.0575 61.3748 55.0485 61.3837C55.0396 61.3927 55.0325 61.4034 55.0277 61.4151C55.0229 61.4268 55.0205 61.4393 55.0205 61.4519C55.0203 61.4737 55.0276 61.4948 55.0412 61.5117C55.0503 61.5231 55.0618 61.5324 55.0749 61.5387C55.088 61.5451 55.1024 61.5484 55.117 61.5484Z" fill="#5896FA"/>
<path id="Vector_42" d="M55.2865 61.7205C55.2865 61.7813 54.9447 61.7813 54.9447 61.7205L54.9466 61.6495C54.96 61.5525 55.2589 61.5484 55.2866 61.6495L55.2865 61.7205Z" fill="#5896FA"/>
<path id="Vector_43" d="M57.326 61.685H55.944C55.9148 61.6849 55.8868 61.6733 55.8662 61.6527C55.8456 61.6321 55.8339 61.6041 55.8339 61.5749C55.8339 61.5458 55.8456 61.5178 55.8662 61.4972C55.8868 61.4766 55.9148 61.4649 55.944 61.4648H57.326C57.3551 61.4649 57.3831 61.4766 57.4037 61.4972C57.4243 61.5178 57.436 61.5458 57.4361 61.5749C57.436 61.6041 57.4243 61.6321 57.4037 61.6527C57.3831 61.6733 57.3551 61.6849 57.326 61.685Z" fill="#80B2FF"/>
<path id="Vector_44" d="M59.1487 61.685H57.7667C57.7375 61.6849 57.7096 61.6733 57.689 61.6527C57.6683 61.6321 57.6567 61.6041 57.6566 61.5749C57.6567 61.5458 57.6683 61.5178 57.689 61.4972C57.7096 61.4766 57.7375 61.4649 57.7667 61.4648H59.1487C59.1779 61.4649 59.2058 61.4766 59.2265 61.4972C59.2471 61.5178 59.2587 61.5458 59.2588 61.5749C59.2587 61.6041 59.2471 61.6321 59.2265 61.6527C59.2058 61.6733 59.1779 61.6849 59.1487 61.685Z" fill="#80B2FF"/>
<path id="Vector_45" d="M57.3145 63.6865H58.5669C58.6521 63.6865 58.7339 63.7204 58.7942 63.7807C58.8545 63.841 58.8884 63.9227 58.8884 64.008C58.8884 64.0932 58.8545 64.175 58.7942 64.2353C58.7339 64.2956 58.6521 64.3294 58.5669 64.3294H57.3145C57.2292 64.3294 57.1475 64.2956 57.0872 64.2353C57.0269 64.175 56.993 64.0932 56.993 64.008C56.993 63.9658 57.0014 63.924 57.0175 63.885C57.0337 63.846 57.0573 63.8105 57.0872 63.7807C57.117 63.7508 57.1525 63.7271 57.1915 63.711C57.2305 63.6948 57.2723 63.6865 57.3145 63.6865Z" fill="#1251B3"/>
<path id="Vector_46" d="M42.175 51.2419C42.1751 51.2313 42.1751 51.2267 42.1751 51.2256C42.1751 51.2275 42.175 51.2419 42.175 51.2419Z" fill="#D9FFFF"/>
<path id="Vector_47" d="M42.175 51.2419C42.1751 51.2313 42.1751 51.2267 42.1751 51.2256C42.1751 51.2275 42.175 51.2419 42.175 51.2419Z" fill="#D9FFFF"/>
<path id="Vector_48" d="M48.3395 51.2702C48.3395 51.2702 48.3395 51.2559 48.3395 51.2539C48.3395 51.255 48.3395 51.2596 48.3395 51.2702Z" fill="#D9FFFF"/>
<path id="Vector_49" d="M48.3395 51.2702C48.3395 51.2702 48.3395 51.2559 48.3395 51.2539C48.3395 51.255 48.3395 51.2596 48.3395 51.2702Z" fill="#D9FFFF"/>
<path id="Vector_50" d="M45.2699 49.5771C44.5515 50.3466 43.4053 50.9773 42.1787 51.246C42.1783 51.3279 42.1763 51.7818 42.1669 53.8738C42.1544 56.6645 44.8104 58.0283 45.2227 58.2376C45.6222 58.0537 48.3116 56.692 48.3241 53.9013C48.3335 51.8093 48.3355 51.3554 48.3359 51.2735C47.1117 50.9939 45.9814 50.353 45.2699 49.5771Z" fill="white"/>
<path id="Vector_51" d="M45.2625 50.0811C44.5591 50.7264 43.5845 51.2336 42.5128 51.51L42.5022 53.8745C42.4974 54.9565 42.9272 55.9352 43.7798 56.7837C44.2078 57.206 44.6957 57.5627 45.2278 57.8425C45.2407 57.836 45.2548 57.8286 45.2687 57.8214V50.0866C45.2666 50.0847 45.2645 50.0829 45.2625 50.0811Z" fill="#296ACC"/>
<path id="Vector_52" d="M45.2687 50.0869V57.8217C45.7875 57.5498 46.2646 57.2047 46.6853 56.7971C47.5454 55.9562 47.9839 54.9813 47.9887 53.8994L47.9993 51.5349C46.9332 51.2497 45.9658 50.7359 45.2687 50.0869Z" fill="#2E77E6"/>
<path id="Vector_53" d="M44.0234 53.4941V55.3259C44.0234 55.5298 46.5139 55.5298 46.5139 55.3259V53.4941H44.0234ZM45.3946 54.4669V54.9861C45.3947 55.0026 45.3915 55.0191 45.3852 55.0345C45.3789 55.0498 45.3697 55.0638 45.3579 55.0755C45.3462 55.0873 45.3323 55.0966 45.317 55.103C45.3017 55.1094 45.2852 55.1126 45.2687 55.1126C45.2521 55.1126 45.2356 55.1094 45.2203 55.103C45.205 55.0966 45.1911 55.0873 45.1794 55.0755C45.1677 55.0638 45.1584 55.0498 45.1521 55.0345C45.1458 55.0191 45.1426 55.0026 45.1427 54.9861V54.4657C45.0789 54.4366 45.0271 54.3865 44.9958 54.3238C44.9646 54.2612 44.9557 54.1897 44.9708 54.1212C44.9858 54.0528 45.0239 53.9916 45.0786 53.9479C45.1333 53.9041 45.2013 53.8804 45.2714 53.8807C45.3414 53.881 45.4093 53.9054 45.4636 53.9496C45.5178 53.9939 45.5553 54.0555 45.5697 54.124C45.5842 54.1926 45.5746 54.264 45.5428 54.3264C45.5109 54.3888 45.4586 54.4384 45.3946 54.4669Z" fill="white"/>
<path id="Vector_54" d="M46.2959 53.3643H46.0438V53.241C46.0438 53.0354 45.9621 52.8383 45.8168 52.693C45.6714 52.5476 45.4743 52.466 45.2687 52.466C45.0632 52.466 44.866 52.5476 44.7207 52.693C44.5753 52.8383 44.4937 53.0354 44.4937 53.241V53.3643H44.2416V53.241C44.2416 52.9686 44.3498 52.7073 44.5424 52.5147C44.735 52.3221 44.9963 52.2139 45.2687 52.2139C45.5411 52.2139 45.8024 52.3221 45.995 52.5147C46.1876 52.7073 46.2959 52.9686 46.2959 53.241V53.3643Z" fill="white"/>
<path id="Vector_55" d="M64.6655 35.5H60.1669V41.1154H64.6655V35.5Z" fill="white"/>
<g id="Group 82025">
<path id="Vector_56" d="M65.6655 36.5H61.1669V42.1154H65.6655V36.5Z" fill="#285AA3"/>
<path id="Vector_57" d="M64.9656 37.4219H62.6385V37.7871H64.9656V37.4219Z" fill="#3383FF"/>
<path id="Vector_58" d="M64.9655 38.2793H61.9503V38.6445H64.9655V38.2793Z" fill="#3383FF"/>
<path id="Vector_59" d="M64.9655 39.1377H61.9503V39.5029H64.9655V39.1377Z" fill="#3383FF"/>
<path id="Vector_60" d="M64.9655 39.9951H61.9503V40.3603H64.9655V39.9951Z" fill="#3383FF"/>
<path id="Vector_61" d="M64.9655 40.8535H61.9503V41.2187H64.9655V40.8535Z" fill="#3383FF"/>
</g>
<path id="Vector_62" d="M50.8843 40.9665C51.0802 40.1112 50.5457 39.2589 49.6903 39.0629C48.8349 38.867 47.9827 39.4015 47.7867 40.2569C47.5907 41.1122 48.1253 41.9645 48.9807 42.1605C49.836 42.3565 50.6883 41.8219 50.8843 40.9665Z" fill="#F4F4F4"/>
<path id="Vector_63" d="M51.8423 42.1231C52.0428 41.7914 52.1752 41.4231 52.2317 41.0396L52.3501 41.057L52.5838 41.0913L52.5868 41.0916C52.6497 40.6685 52.6288 40.2372 52.5254 39.8221L52.1777 39.9082C52.0845 39.5321 51.9173 39.1782 51.6858 38.8674L51.974 38.6532C51.7198 38.3089 51.4 38.0183 51.0331 37.7979L50.8475 38.1058C50.5159 37.9051 50.1475 37.7728 49.764 37.7164L49.8159 37.3613C49.3928 37.2989 48.9616 37.3198 48.5465 37.4227L48.6326 37.7704C48.2564 37.8636 47.9026 38.0308 47.5917 38.2623L47.3775 37.9741C47.0333 38.2283 46.7426 38.5481 46.5223 38.915L46.8302 39.1006C46.6295 39.4322 46.4971 39.8006 46.4407 40.1841L46.1895 40.1471L46.0868 40.1329L46.0856 40.1322C46.0233 40.5553 46.0441 40.9865 46.147 41.4016L46.4948 41.3155C46.5883 41.692 46.7559 42.046 46.9878 42.357L46.6996 42.5713C46.9534 42.9153 47.2728 43.2057 47.6393 43.4258L47.825 43.1179C48.157 43.3188 48.5257 43.4515 48.9096 43.5081L48.8688 43.784L48.8577 43.8631C49.2804 43.9253 49.7113 43.9042 50.126 43.801L50.0399 43.4533C50.4165 43.3595 50.7708 43.1922 51.0826 42.961L51.2968 43.2492C51.64 42.9946 51.9299 42.675 52.1502 42.3088L51.8423 42.1231ZM48.5156 41.9728C48.2464 41.8107 48.0314 41.5724 47.8978 41.288C47.7641 41.0037 47.7177 40.6862 47.7645 40.3755C47.8113 40.0648 47.9492 39.775 48.1607 39.5427C48.3722 39.3104 48.6478 39.146 48.9528 39.0703C49.2577 38.9947 49.5782 39.0111 49.8738 39.1177C50.1694 39.2242 50.4267 39.4159 50.6133 39.6687C50.7999 39.9215 50.9074 40.2239 50.9221 40.5377C50.9368 40.8516 50.8581 41.1627 50.696 41.4318C50.5883 41.6105 50.4465 41.7663 50.2787 41.8902C50.1109 42.0141 49.9203 42.1037 49.7178 42.1539C49.5153 42.2042 49.3049 42.214 49.0987 42.1829C48.8924 42.1519 48.6942 42.0804 48.5156 41.9728Z" fill="#285AA3"/>
<path id="Vector_64" d="M45.8958 41.9122C45.7834 41.7418 45.6381 41.5957 45.4685 41.4822L45.5035 41.4298L45.5727 41.3264L45.5735 41.325C45.3865 41.1995 45.1767 41.112 44.9559 41.0674L44.9183 41.2522C44.7183 41.2115 44.5123 41.211 44.3122 41.2509L44.2754 41.0654C44.0543 41.1086 43.8438 41.1949 43.6561 41.3196L43.7606 41.4775C43.5902 41.5898 43.444 41.7351 43.3305 41.9047L43.1734 41.7998C43.0481 41.9869 42.9606 42.1967 42.9158 42.4174L43.1006 42.455C43.0599 42.6549 43.0594 42.861 43.0993 43.0611L42.9138 43.0979C42.9569 43.319 43.0433 43.5295 43.168 43.7172L43.3259 43.6127C43.4382 43.7831 43.5835 43.9293 43.7531 44.0427L43.6788 44.1538L43.6488 44.1995L43.6482 44.1999C43.8353 44.3251 44.0451 44.4127 44.2658 44.4575L44.3034 44.2727C44.5036 44.3133 44.7098 44.3136 44.9101 44.2736L44.9468 44.4591C45.1678 44.4161 45.3781 44.3298 45.5656 44.2053L45.4611 44.0474C45.6317 43.9349 45.7781 43.7895 45.8917 43.6197L46.0137 43.7015L46.0488 43.7247C46.1739 43.5377 46.2612 43.328 46.3059 43.1075L46.1211 43.0699C46.1616 42.8696 46.1621 42.6633 46.1226 42.4628L46.308 42.426C46.2645 42.2053 46.1781 41.9952 46.0536 41.8077L45.8958 41.9122ZM45.0726 43.4602C44.9347 43.5516 44.7728 43.6 44.6073 43.5993C44.4419 43.5986 44.2804 43.5489 44.1433 43.4565C44.0061 43.364 43.8994 43.233 43.8367 43.0799C43.7741 42.9268 43.7582 42.7586 43.7911 42.5965C43.824 42.4343 43.9043 42.2856 44.0217 42.1692C44.1392 42.0527 44.2885 41.9736 44.4509 41.942C44.6133 41.9104 44.7814 41.9276 44.9339 41.9915C45.0865 42.0555 45.2167 42.1632 45.308 42.3011C45.3687 42.3927 45.4107 42.4953 45.4317 42.6031C45.4527 42.7109 45.4523 42.8218 45.4304 42.9294C45.4085 43.0371 45.3657 43.1393 45.3043 43.2304C45.2429 43.3215 45.1642 43.3996 45.0726 43.4602Z" fill="#1251B3"/>
<path id="Vector_65" d="M68.0196 42.6553H71.8823C71.9213 42.6553 71.9588 42.6708 71.9864 42.6984C72.014 42.726 72.0295 42.7635 72.0295 42.8025V44.9942C72.0295 45.0333 72.014 45.0707 71.9864 45.0983C71.9588 45.1259 71.9213 45.1415 71.8823 45.1415H68.0196C67.9805 45.1415 67.9431 45.1259 67.9154 45.0983C67.8878 45.0707 67.8723 45.0333 67.8723 44.9942V42.8025C67.8723 42.7635 67.8878 42.726 67.9154 42.6984C67.9431 42.6708 67.9805 42.6553 68.0196 42.6553Z" fill="#285AA3"/>
<path id="Vector_66" d="M72.0295 43.124H67.8723V43.553H72.0295V43.124Z" fill="#5896FA"/>
<path id="Vector_67" d="M68.8244 44.6641L68.2132 44.6641C68.2039 44.6641 68.1948 44.6659 68.1863 44.6694C68.1777 44.673 68.17 44.6781 68.1634 44.6847C68.1569 44.6912 68.1517 44.699 68.1482 44.7075C68.1446 44.716 68.1428 44.7252 68.1428 44.7344V44.7344C68.1428 44.7437 68.1446 44.7528 68.1482 44.7613C68.1517 44.7699 68.1569 44.7776 68.1634 44.7842C68.17 44.7907 68.1777 44.7959 68.1863 44.7994C68.1948 44.8029 68.2039 44.8048 68.2132 44.8048H68.8244C68.8337 44.8048 68.8428 44.8029 68.8513 44.7994C68.8599 44.7959 68.8676 44.7907 68.8742 44.7842C68.8807 44.7776 68.8859 44.7699 68.8894 44.7613C68.8929 44.7528 68.8948 44.7437 68.8948 44.7344C68.8948 44.7158 68.8874 44.6979 68.8742 44.6847C68.861 44.6715 68.8431 44.6641 68.8244 44.6641Z" fill="#D1F5FF"/>
<path id="Vector_68" d="M69.7645 44.6641H69.1532C69.1346 44.6641 69.1167 44.6715 69.1035 44.6847C69.0903 44.6979 69.0829 44.7158 69.0829 44.7344C69.0829 44.7437 69.0847 44.7528 69.0882 44.7613C69.0918 44.7699 69.097 44.7776 69.1035 44.7842C69.11 44.7907 69.1178 44.7959 69.1263 44.7994C69.1349 44.8029 69.144 44.8048 69.1532 44.8048H69.7645C69.7737 44.8048 69.7829 44.8029 69.7914 44.7994C69.7999 44.7959 69.8077 44.7907 69.8142 44.7842C69.8208 44.7776 69.8259 44.7699 69.8295 44.7613C69.833 44.7528 69.8348 44.7437 69.8348 44.7344C69.8348 44.7158 69.8274 44.6979 69.8142 44.6847C69.801 44.6715 69.7831 44.6641 69.7645 44.6641Z" fill="#D1F5FF"/>
<path id="Vector_69" d="M70.7044 44.6641H70.0932C70.0745 44.6641 70.0566 44.6715 70.0434 44.6847C70.0302 44.6979 70.0228 44.7158 70.0228 44.7344C70.0228 44.7437 70.0246 44.7528 70.0282 44.7613C70.0317 44.7699 70.0369 44.7776 70.0434 44.7842C70.05 44.7907 70.0577 44.7959 70.0663 44.7994C70.0748 44.8029 70.0839 44.8048 70.0932 44.8048H70.7044C70.7137 44.8048 70.7228 44.8029 70.7313 44.7994C70.7399 44.7959 70.7476 44.7907 70.7542 44.7842C70.7607 44.7776 70.7659 44.7699 70.7694 44.7613C70.773 44.7528 70.7748 44.7437 70.7748 44.7344C70.7748 44.7158 70.7674 44.6979 70.7542 44.6847C70.741 44.6715 70.7231 44.6641 70.7044 44.6641Z" fill="#D1F5FF"/>
<path id="Vector_70" d="M71.6444 44.6641H71.0331C71.0145 44.6641 70.9966 44.6715 70.9834 44.6847C70.9702 44.6979 70.9628 44.7158 70.9628 44.7344C70.9628 44.7531 70.9702 44.771 70.9834 44.7842C70.9966 44.7974 71.0145 44.8048 71.0331 44.8048H71.6444C71.6536 44.8048 71.6627 44.8029 71.6713 44.7994C71.6798 44.7959 71.6876 44.7907 71.6941 44.7842C71.7006 44.7776 71.7058 44.7699 71.7094 44.7613C71.7129 44.7528 71.7147 44.7437 71.7147 44.7344C71.7147 44.7252 71.7129 44.716 71.7094 44.7075C71.7058 44.699 71.7006 44.6912 71.6941 44.6847C71.6876 44.6781 71.6798 44.673 71.6713 44.6694C71.6627 44.6659 71.6536 44.6641 71.6444 44.6641Z" fill="#D1F5FF"/>
<path id="Vector_71" d="M68.1851 42.7812C68.1645 42.7813 68.1447 42.7894 68.1302 42.804C68.1156 42.8186 68.1074 42.8383 68.1074 42.8589V42.8862C68.1074 42.9068 68.1156 42.9265 68.1302 42.9411C68.1447 42.9556 68.1645 42.9638 68.1851 42.9638C68.2057 42.9638 68.2254 42.9556 68.24 42.9411C68.2545 42.9265 68.2627 42.9068 68.2627 42.8862V42.8589C68.2627 42.8383 68.2545 42.8186 68.24 42.804C68.2254 42.7894 68.2057 42.7813 68.1851 42.7812Z" fill="#D1F5FF"/>
<path id="Vector_72" d="M68.3523 42.8725V42.8725C68.3523 42.8967 68.3619 42.92 68.379 42.9371C68.3962 42.9542 68.4194 42.9638 68.4436 42.9638H68.7671C68.7791 42.9638 68.791 42.9615 68.8021 42.9569C68.8131 42.9523 68.8232 42.9456 68.8317 42.9371C68.8402 42.9286 68.8469 42.9185 68.8515 42.9075C68.8561 42.8964 68.8584 42.8845 68.8584 42.8725C68.8584 42.8483 68.8488 42.8251 68.8317 42.808C68.8146 42.7909 68.7913 42.7812 68.7671 42.7812H68.4436C68.4316 42.7812 68.4197 42.7836 68.4086 42.7882C68.3976 42.7928 68.3875 42.7995 68.379 42.808C68.3706 42.8165 68.3638 42.8265 68.3592 42.8376C68.3547 42.8487 68.3523 42.8605 68.3523 42.8725Z" fill="#D1F5FF"/>
<path id="Vector_73" d="M68.3099 43.7842H68.7277C68.7437 43.7842 68.7594 43.7873 68.7741 43.7934C68.7889 43.7995 68.8022 43.8084 68.8135 43.8197C68.8247 43.831 68.8337 43.8443 68.8398 43.859C68.8459 43.8738 68.849 43.8895 68.849 43.9054V44.2657C68.849 44.2979 68.8362 44.3287 68.8135 44.3515C68.7907 44.3742 68.7599 44.387 68.7277 44.387H68.3099C68.2777 44.387 68.2469 44.3742 68.2241 44.3515C68.2014 44.3287 68.1886 44.2979 68.1886 44.2657V43.9054C68.1886 43.8733 68.2014 43.8424 68.2241 43.8197C68.2469 43.797 68.2777 43.7842 68.3099 43.7842Z" fill="#5896FA"/>
<path id="Vector_74" d="M70.3523 51.4736V51.1896C70.3523 51.1589 70.3463 51.1285 70.3346 51.1002C70.3228 51.0719 70.3056 51.0461 70.284 51.0245C70.2623 51.0028 70.2365 50.9856 70.2082 50.9738C70.1799 50.9621 70.1495 50.9561 70.1189 50.9561H67.6332C67.5712 50.9561 67.5118 50.9807 67.4681 51.0245C67.4243 51.0682 67.3997 51.1276 67.3997 51.1896V56.2096H73.8294V51.4736H70.3523Z" fill="#1251B3"/>
<path id="Vector_75" d="M74.0968 51.6465H67.7918L67.3997 56.21H73.7981L74.0968 51.6465Z" fill="white"/>
<path id="Vector_76" d="M73.8294 56.2097H67.3997L68.0819 51.7029C68.0916 51.6391 68.1238 51.5809 68.1727 51.5388C68.2216 51.4968 68.284 51.4736 68.3485 51.4736H74.2329C74.2717 51.4736 74.3101 51.482 74.3453 51.4982C74.3806 51.5144 74.412 51.538 74.4373 51.5675C74.4626 51.5969 74.4813 51.6314 74.492 51.6688C74.5027 51.7061 74.5053 51.7452 74.4995 51.7836L73.8294 56.2097Z" fill="#3383FF"/>
<path id="Vector_77" d="M75.5443 52.6882C76.1196 52.1129 76.1196 51.1801 75.5443 50.6048C74.9689 50.0294 74.0361 50.0294 73.4608 50.6048C72.8855 51.1801 72.8855 52.1129 73.4608 52.6882C74.0361 53.2635 74.9689 53.2635 75.5443 52.6882Z" fill="#285AA3"/>
<path id="Vector_78" d="M74.5025 53.1733C74.2005 53.1733 73.9053 53.0837 73.6542 52.9158C73.4031 52.748 73.2074 52.5095 73.0919 52.2305C72.9763 51.9514 72.9461 51.6444 73.0051 51.3482C73.064 51.052 73.2095 50.7799 73.423 50.5664C73.6366 50.3528 73.9087 50.2074 74.2049 50.1485C74.5011 50.0896 74.8082 50.1198 75.0872 50.2354C75.3662 50.351 75.6047 50.5467 75.7725 50.7978C75.9403 51.0489 76.0299 51.3441 76.0299 51.6461C76.0294 52.0511 75.8683 52.4392 75.582 52.7255C75.2956 53.0118 74.9074 53.1729 74.5025 53.1733ZM74.5025 50.2269C74.2218 50.2268 73.9474 50.3101 73.7139 50.466C73.4805 50.622 73.2986 50.8437 73.1911 51.103C73.0837 51.3624 73.0556 51.6478 73.1103 51.9231C73.1651 52.1984 73.3003 52.4514 73.4988 52.6499C73.6973 52.8484 73.9502 52.9836 74.2256 53.0383C74.5009 53.0931 74.7863 53.065 75.0457 52.9575C75.305 52.8501 75.5267 52.6682 75.6826 52.4347C75.8386 52.2013 75.9218 51.9269 75.9218 51.6461C75.9214 51.2698 75.7718 50.9091 75.5057 50.643C75.2396 50.3769 74.8788 50.2272 74.5025 50.2269Z" fill="white"/>
<path id="Vector_79" d="M73.7933 51.3799V52.423C73.7933 52.5392 75.2116 52.5392 75.2116 52.423V51.3799H73.7933ZM74.5742 51.9338V52.2295C74.5743 52.2389 74.5724 52.2483 74.5688 52.2571C74.5653 52.2658 74.56 52.2737 74.5533 52.2804C74.5466 52.2871 74.5387 52.2924 74.53 52.2961C74.5213 52.2997 74.5119 52.3016 74.5025 52.3016C74.493 52.3016 74.4837 52.2997 74.4749 52.2961C74.4662 52.2924 74.4583 52.2871 74.4516 52.2804C74.445 52.2737 74.4397 52.2658 74.4361 52.2571C74.4325 52.2483 74.4307 52.2389 74.4307 52.2295V51.9332C74.3944 51.9166 74.3649 51.8881 74.3471 51.8524C74.3293 51.8167 74.3242 51.776 74.3328 51.737C74.3414 51.698 74.3631 51.6632 74.3942 51.6383C74.4254 51.6133 74.4641 51.5998 74.504 51.6C74.5439 51.6002 74.5825 51.6141 74.6135 51.6393C74.6444 51.6645 74.6657 51.6995 74.6739 51.7386C74.6821 51.7776 74.6767 51.8183 74.6586 51.8538C74.6404 51.8894 74.6107 51.9176 74.5742 51.9338Z" fill="white"/>
<path id="Vector_80" d="M75.0875 51.3056H74.9439V51.2353C74.9439 51.1183 74.8974 51.006 74.8146 50.9232C74.7319 50.8405 74.6196 50.794 74.5025 50.794C74.3855 50.794 74.2732 50.8405 74.1904 50.9232C74.1077 51.006 74.0612 51.1183 74.0612 51.2353V51.3056H73.9176V51.2353C73.9176 51.0802 73.9792 50.9314 74.0889 50.8217C74.1986 50.712 74.3474 50.6504 74.5025 50.6504C74.6577 50.6504 74.8065 50.712 74.9161 50.8217C75.0258 50.9314 75.0875 51.0802 75.0875 51.2353V51.3056Z" fill="white"/>
</g>
</g>
</g>
</g>
<path id="Vector_81" d="M22.1667 17.5684V15.6456C22.1667 15.3417 22.2874 15.0504 22.5023 14.8355C22.7171 14.6207 23.0085 14.5 23.3123 14.5V14.5C23.4627 14.5 23.6117 14.5296 23.7507 14.5872C23.8897 14.6448 24.0159 14.7291 24.1223 14.8355C24.2287 14.9419 24.3131 15.0682 24.3707 15.2072C24.4282 15.3462 24.4578 15.4951 24.4578 15.6456V20.686C24.4578 20.7762 24.4401 20.8656 24.4055 20.949C24.371 21.0324 24.3204 21.1082 24.2565 21.172C24.1927 21.2358 24.1169 21.2864 24.0336 21.321C23.9502 21.3555 23.8608 21.3733 23.7705 21.3733C23.6803 21.3733 23.5909 21.3555 23.5075 21.321C23.4241 21.2864 23.3483 21.2358 23.2845 21.172C23.2207 21.1082 23.17 21.0324 23.1355 20.949C23.101 20.8656 23.0832 20.7762 23.0832 20.686V16.161" stroke="#707070" stroke-miterlimit="10"/>
</g>
</svg>
