<svg width="95" height="95" viewBox="0 0 95 95" fill="none" xmlns="http://www.w3.org/2000/svg">
<path d="M71.25 71C84.2287 58.0213 84.2287 36.9787 71.25 24C58.2713 11.0213 37.2287 11.0213 24.25 24C11.2713 36.9787 11.2713 58.0213 24.25 71C37.2287 83.9787 58.2713 83.9787 71.25 71Z" fill="#285AA3"/>
<path d="M55.7072 17.1895L19.9208 17.1895V72.3717H55.7072V17.1895Z" fill="#FAFAFA"/>
<path d="M34.4748 28.7828C34.4484 28.7106 33.8225 25.4225 33.7501 24.1459C33.6776 22.8692 35.9966 22.6825 35.9966 22.6825C35.9966 22.6825 37.894 21.7491 39.2709 22.2309C40.5169 22.6473 41.5575 23.4596 42.2026 24.5192C42.8285 25.5249 41.6492 28.6564 41.6492 28.6564L34.4748 28.7828Z" fill="#2E2D3D"/>
<path d="M30.1731 39.3391C30.1599 39.2849 30.3312 37.9902 30.3378 37.942C30.654 35.214 34.3302 34.4492 37.9931 34.4492C42.3017 34.4492 45.2203 35.1719 45.688 38.0022C45.7012 38.0865 45.9515 39.3813 45.9384 39.4716C37.9536 39.5679 30.1731 39.3391 30.1731 39.3391Z" fill="#D5E1E8"/>
<path d="M38.7329 36.5632C38.3047 37.1413 37.9951 37.1654 37.5339 36.5632C37.165 36.0874 35.933 35.0035 35.933 34.4494L36.4403 28.9694C36.4403 28.7043 36.5555 28.45 36.7606 28.2625C36.9657 28.075 37.2438 27.9697 37.5339 27.9697H38.7329C39.0224 27.9713 39.2996 28.0771 39.5043 28.2643C39.709 28.4514 39.8248 28.7047 39.8265 28.9694L40.0637 34.4494C40.0637 35.0035 39.115 36.0513 38.7329 36.5632Z" fill="#F09959"/>
<path d="M38.7297 27.9697H37.5306C37.2406 27.9697 36.9624 28.075 36.7573 28.2625C36.5522 28.45 36.437 28.7043 36.437 28.9694L35.9956 33.8292C37.3462 34.2266 39.1711 33.4257 39.9748 32.5465L39.8233 28.9694C39.8215 28.7047 39.7058 28.4514 39.5011 28.2643C39.2963 28.0771 39.0192 27.9713 38.7297 27.9697Z" fill="#E38540"/>
<path d="M33.999 34.8525L35.9293 38.1105C35.9293 38.1105 36.9637 37.3336 37.0625 37.4842C37.1613 37.6347 36.878 39.5557 36.878 39.5557C36.878 39.5557 39.1772 39.5859 39.2761 39.4955C39.3749 39.4052 38.8083 37.4059 39.0455 37.4059C39.2827 37.4059 39.9744 37.984 39.9744 37.984L42.1287 34.8525L41.6544 34.7441L38.1297 36.4785L34.3548 34.7803L33.999 34.8525Z" fill="#BDCCD4"/>
<path d="M36.2081 36.3509L37.6377 37.2301L37.1963 39.5606L39.1266 39.4583L38.6457 37.3385L39.8316 36.3509L39.2782 35.8691H36.7681L36.2081 36.3509Z" fill="#D54A41"/>
<path d="M36.0288 33.2502L34.2566 34.7918C34.2566 34.7918 36.0617 37.7245 36.1605 37.7245C36.2594 37.7245 37.6956 36.1106 37.6956 36.1106L38.6113 36.0926L40.0607 37.4836L41.7407 34.7617L40.0278 33.0996C40.0278 33.0996 38.5586 35.6891 38.2951 35.7493C38.0316 35.8095 38.025 35.8396 37.8076 35.6891C37.5902 35.5385 36.0288 33.2502 36.0288 33.2502Z" fill="#D5E1E8"/>
<path d="M38.1298 32.5513C40.1382 32.5513 41.7664 30.5238 41.7664 28.0227C41.7664 25.5216 40.1382 23.4941 38.1298 23.4941C36.1213 23.4941 34.4932 25.5216 34.4932 28.0227C34.4932 30.5238 36.1213 32.5513 38.1298 32.5513Z" fill="#F09959"/>
<path d="M34.8691 27.9565C35.2051 28.6069 35.0931 29.3054 34.6188 29.5162C34.1444 29.7269 33.479 29.3596 33.1365 28.7032C32.7939 28.0468 32.9059 27.3543 33.3868 27.1435C33.8677 26.9327 34.5266 27.3001 34.8691 27.9565Z" fill="#F09959"/>
<path d="M41.2265 27.9575C40.8905 28.6078 41.0025 29.3064 41.4768 29.5172C41.9512 29.7279 42.6166 29.3606 42.9592 28.7042C43.3017 28.0478 43.1831 27.3552 42.7088 27.1445C42.2345 26.9337 41.5691 27.301 41.2265 27.9575Z" fill="#F09959"/>
<path d="M35.9969 24.9454C37.499 23.9879 38.171 24.1444 39.2975 25.7222C40.4241 27.3 41.7681 27.3241 41.7681 27.3241L41.9394 25.6921C41.9394 25.6921 40.266 22.7293 38.0195 23.1147C35.7729 23.5001 34.4948 25.3549 34.4948 25.3549C34.4948 25.3549 34.3828 28.8175 34.6991 28.938C35.0153 29.0584 35.0482 27.8179 35.2722 27.571C35.4962 27.3241 35.0482 26.1317 35.3513 25.5837C35.6543 25.0357 35.9969 24.9454 35.9969 24.9454Z" fill="#2E2D3D"/>
<path d="M40.8208 26.7227C41.3413 27.2466 41.1436 29.3302 41.4203 29.3061C41.697 29.282 41.7958 27.3188 41.7168 27.1141C41.6377 26.9093 40.8208 26.7227 40.8208 26.7227Z" fill="#2E2D3D"/>
<path d="M46.2156 46.499H29.5214C29.2383 46.499 28.9668 46.3962 28.7667 46.2132C28.5665 46.0303 28.4541 45.7822 28.4541 45.5234C28.4541 45.2647 28.5665 45.0165 28.7667 44.8336C28.9668 44.6506 29.2383 44.5479 29.5214 44.5479H46.2156C46.4986 44.5479 46.7701 44.6506 46.9702 44.8336C47.1704 45.0165 47.2828 45.2647 47.2828 45.5234C47.2828 45.7822 47.1704 46.0303 46.9702 46.2132C46.7701 46.3962 46.4986 46.499 46.2156 46.499Z" fill="#4790F6"/>
<path d="M44.1384 49.497H31.5947C31.3117 49.497 31.0402 49.3943 30.8401 49.2113C30.6399 49.0283 30.5275 48.7802 30.5275 48.5215C30.5275 48.2627 30.6399 48.0146 30.8401 47.8316C31.0402 47.6487 31.3117 47.5459 31.5947 47.5459H44.1384C44.4215 47.5459 44.693 47.6487 44.8931 47.8316C45.0933 48.0146 45.2057 48.2627 45.2057 48.5215C45.2057 48.7802 45.0933 49.0283 44.8931 49.2113C44.693 49.3943 44.4215 49.497 44.1384 49.497Z" fill="#4790F6"/>
<path d="M53.1257 60.2835H22.6098C22.4455 60.2835 22.288 60.2239 22.1719 60.1177C22.0557 60.0115 21.9905 59.8676 21.9905 59.7174C21.9905 59.5673 22.0557 59.4233 22.1719 59.3172C22.288 59.211 22.4455 59.1514 22.6098 59.1514H53.1257C53.29 59.1514 53.4475 59.211 53.5636 59.3172C53.6798 59.4233 53.745 59.5673 53.745 59.7174C53.745 59.8676 53.6798 60.0115 53.5636 60.1177C53.4475 60.2239 53.29 60.2835 53.1257 60.2835Z" fill="#4790F6"/>
<path d="M53.1256 62.9153H22.6096C22.5283 62.9153 22.4478 62.9007 22.3726 62.8723C22.2975 62.8438 22.2292 62.8021 22.1717 62.7496C22.1142 62.697 22.0686 62.6346 22.0375 62.5659C22.0064 62.4972 21.9904 62.4236 21.9904 62.3493C21.9904 62.2749 22.0064 62.2013 22.0375 62.1327C22.0686 62.064 22.1142 62.0016 22.1717 61.949C22.2292 61.8964 22.2975 61.8547 22.3726 61.8263C22.4478 61.7978 22.5283 61.7832 22.6096 61.7832H53.1256C53.2898 61.7832 53.4474 61.8428 53.5635 61.949C53.6796 62.0552 53.7449 62.1991 53.7449 62.3493C53.7449 62.4994 53.6796 62.6434 53.5635 62.7496C53.4474 62.8557 53.2898 62.9153 53.1256 62.9153Z" fill="#4790F6"/>
<path d="M53.1259 65.5462H22.6099C22.4456 65.5462 22.2881 65.4866 22.172 65.3804C22.0558 65.2742 21.9906 65.1303 21.9906 64.9801C21.9906 64.83 22.0558 64.686 22.172 64.5799C22.2881 64.4737 22.4456 64.4141 22.6099 64.4141H53.1259C53.2901 64.4141 53.4476 64.4737 53.5637 64.5799C53.6799 64.686 53.7451 64.83 53.7451 64.9801C53.7451 65.1303 53.6799 65.2742 53.5637 65.3804C53.4476 65.4866 53.2901 65.5462 53.1259 65.5462Z" fill="#4790F6"/>
<path d="M48.8564 39.8572H26.8786C26.6183 39.8572 26.3686 39.7627 26.1845 39.5944C26.0004 39.4261 25.897 39.1979 25.897 38.9599V20.4422C25.897 20.2042 26.0004 19.976 26.1845 19.8077C26.3686 19.6395 26.6183 19.5449 26.8786 19.5449H48.8564C49.1174 19.5449 49.3677 19.6393 49.5529 19.8074C49.738 19.9755 49.8429 20.2037 49.8446 20.4422V38.9599C49.8429 39.1985 49.738 39.4267 49.5529 39.5948C49.3677 39.7629 49.1174 39.8572 48.8564 39.8572ZM26.8786 20.1471C26.793 20.1471 26.7109 20.1782 26.6503 20.2335C26.5898 20.2889 26.5558 20.3639 26.5558 20.4422V38.9599C26.5558 39.0382 26.5898 39.1133 26.6503 39.1686C26.7109 39.2239 26.793 39.255 26.8786 39.255H48.8564C48.9427 39.255 49.0255 39.2241 49.087 39.169C49.1486 39.1138 49.1841 39.0387 49.1858 38.9599V20.4422C49.1841 20.3634 49.1486 20.2883 49.087 20.2332C49.0255 20.178 48.9427 20.1471 48.8564 20.1471H26.8786Z" fill="#C6C6C6"/>
<path d="M27.4061 52.0449L28.0385 53.2192L29.4615 53.4119L28.4338 54.3273L28.6776 55.622L27.4061 55.0138L26.1346 55.622L26.3717 54.3273L25.344 53.4119L26.767 53.2192L27.4061 52.0449Z" fill="#4790F6"/>
<path d="M32.617 52.0459L33.2495 53.2202L34.6725 53.4129L33.6447 54.3282L33.8885 55.623L32.617 55.0148L31.3455 55.623L31.5827 54.3282L30.5549 53.4129L31.978 53.2202L32.617 52.0459Z" fill="#4790F6"/>
<path d="M37.8281 52.0459L38.4605 53.2202L39.8835 53.4129L38.8558 54.3282L39.0996 55.623L37.8281 55.0148L36.5566 55.623L36.7937 54.3282L35.766 53.4129L37.189 53.2202L37.8281 52.0459Z" fill="#4790F6"/>
<path d="M43.0392 52.0449L43.6717 53.2192L45.0947 53.4119L44.067 54.3273L44.3107 55.622L43.0392 55.0138L41.7677 55.622L42.0115 54.3273L40.9772 53.4119L42.4002 53.2192L43.0392 52.0449Z" fill="#4790F6"/>
<path d="M48.3308 52.0449L48.9698 53.2192L50.3928 53.4119L49.3651 54.3273L49.6088 55.622L48.3308 55.0138L47.0593 55.622L47.303 54.3273L46.2753 53.4119L47.6983 53.2192L48.3308 52.0449Z" fill="#4790F6"/>
<g style="mix-blend-mode:multiply">
<path d="M50.7974 70.3903V24.7757L43.4695 23.5L35.75 70.3903H50.7974Z" fill="#CCCCCC"/>
</g>
<path d="M72.471 75.7829L38.6963 71.084L45.1755 24.5125L78.9502 29.2114L72.471 75.7829Z" fill="white"/>
<path d="M42.633 65.3645L70.1744 69.1962C70.2294 69.2038 70.2803 69.1672 70.2877 69.1142C70.2951 69.0608 70.2561 69.0116 70.2011 69.004L42.6598 65.1723C42.6043 65.1646 42.5538 65.2013 42.5464 65.2547C42.539 65.3077 42.5776 65.3568 42.633 65.3645Z" fill="#F0F0F0"/>
<path d="M42.3841 67.1584L69.9255 70.9901C69.9805 70.9978 70.0314 70.9611 70.0389 70.9077C70.0462 70.8547 70.0072 70.8056 69.9522 70.7979L42.4109 66.9663C42.3554 66.9585 42.3049 66.9953 42.2976 67.0482C42.2901 67.1016 42.3287 67.1507 42.3841 67.1584Z" fill="#F0F0F0"/>
<rect opacity="0.5" x="47.4119" y="30.2256" width="9.00752" height="0.88961" rx="0.444805" transform="rotate(7.9204 47.4119 30.2256)" fill="#C4C4C4"/>
<rect opacity="0.5" x="47.4119" y="30.2256" width="9.00752" height="0.88961" rx="0.444805" transform="rotate(7.9204 47.4119 30.2256)" fill="#C4C4C4"/>
<rect opacity="0.5" x="45.6669" y="42.7734" width="9.00752" height="0.88961" rx="0.444805" transform="rotate(7.9204 45.6669 42.7734)" fill="white"/>
<rect x="47.1067" y="32.4277" width="14.8729" height="0.88961" rx="0.444805" transform="rotate(7.9204 47.1067 32.4277)" fill="#BDBDBD"/>
<rect x="45.2983" y="45.4219" width="25.2851" height="0.844573" rx="0.422286" transform="rotate(7.9204 45.2983 45.4219)" fill="white"/>
<rect x="44.8909" y="48.3496" width="25.2851" height="0.844573" rx="0.422286" transform="rotate(7.9204 44.8909 48.3496)" fill="#E0E0E0"/>
<rect x="44.4833" y="51.2783" width="25.2851" height="0.844573" rx="0.422286" transform="rotate(7.9204 44.4833 51.2783)" fill="#E0E0E0"/>
<rect x="44.078" y="54.2061" width="25.2851" height="0.844573" rx="0.422286" transform="rotate(7.9204 44.078 54.2061)" fill="#E0E0E0"/>
<g clip-path="url(#clip0_211_6474)">
<path d="M61.6485 56.6719L62.5051 59.4268C62.5463 59.5592 62.5195 59.7059 62.4345 59.8145C62.3493 59.9229 62.2182 59.9779 62.0876 59.9597L60.258 59.7052L58.9437 61.1085C58.8583 61.2 58.7382 61.2432 58.6203 61.2268C58.4638 61.205 58.3543 61.0886 58.314 60.9585L57.5069 58.3621C59.0784 58.4201 60.5608 57.7749 61.6485 56.6719Z" fill="#2859A5"/>
<path d="M51.3385 57.8735L52.9145 55.4571C53.6598 56.815 54.9098 57.8404 56.4375 58.2135L54.9522 60.4911C54.8781 60.6052 54.7409 60.6873 54.5844 60.6656C54.4666 60.6492 54.3627 60.5749 54.3055 60.4634L53.4243 58.7547L51.5947 58.5002C51.4641 58.482 51.353 58.3933 51.3006 58.2657C51.2485 58.1381 51.2627 57.9896 51.3385 57.8735Z" fill="#2859A5"/>
<path d="M57.3253 51.1292L58.105 50.146L58.5864 51.3047C58.6259 51.3997 58.6988 51.4742 58.7898 51.5124L59.8999 51.9794L59.002 52.8417C58.9284 52.9123 58.883 53.0101 58.8754 53.1144L58.7822 54.3861L57.7457 53.7605C57.6964 53.7308 57.5935 53.6859 57.464 53.7213L56.296 54.0403L56.5534 52.7914C56.5745 52.6889 56.5575 52.5825 56.5059 52.4944L55.8775 51.4198L57.0729 51.2736C57.1709 51.2616 57.2614 51.2099 57.3253 51.1292Z" fill="#2859A5"/>
<path d="M52.976 51.7233C53.3688 48.9001 55.8488 46.9039 58.5044 47.2733C61.16 47.6428 63.0009 50.2402 62.6081 53.0634C62.2154 55.8865 59.7353 57.8829 57.0797 57.5134C54.4242 57.1439 52.5832 54.5465 52.976 51.7233ZM54.9098 51.3086L55.7763 52.7901L55.4215 54.512C55.3934 54.6485 55.4332 54.7895 55.5269 54.8853C55.6207 54.9809 55.7551 55.0179 55.8827 54.9831L57.4929 54.5433L58.922 55.406C58.9603 55.4291 59.1144 55.5098 59.291 55.4089C59.4072 55.3424 59.484 55.2176 59.4942 55.0787L59.6228 53.3253L60.8607 52.1366C60.9589 52.0423 61.0052 51.902 60.9833 51.7652C60.9614 51.6284 60.8745 51.5142 60.7532 51.4632L59.2226 50.8194L58.5588 49.222C58.5062 49.0955 58.3954 49.0076 58.2656 48.9896C58.1358 48.9715 58.0052 49.0258 57.9201 49.1331L56.8452 50.4887L55.1971 50.6902C55.0665 50.7062 54.9517 50.7923 54.8933 50.9179C54.8349 51.0436 54.8412 51.1912 54.9098 51.3086Z" fill="#2859A5"/>
</g>
<path d="M22.75 17.5684V15.6456C22.75 15.3417 22.8707 15.0504 23.0855 14.8355C23.3004 14.6207 23.5917 14.5 23.8955 14.5V14.5C24.046 14.5 24.1949 14.5296 24.3339 14.5872C24.4729 14.6448 24.5992 14.7291 24.7056 14.8355C24.8119 14.9419 24.8963 15.0682 24.9539 15.2072C25.0115 15.3462 25.0411 15.4951 25.0411 15.6456V20.686C25.0411 20.7762 25.0233 20.8656 24.9888 20.949C24.9542 21.0324 24.9036 21.1082 24.8398 21.172C24.776 21.2358 24.7002 21.2864 24.6168 21.321C24.5334 21.3555 24.444 21.3733 24.3538 21.3733C24.2635 21.3733 24.1741 21.3555 24.0907 21.321C24.0074 21.2864 23.9316 21.2358 23.8678 21.172C23.8039 21.1082 23.7533 21.0324 23.7188 20.949C23.6842 20.8656 23.6664 20.7762 23.6664 20.686V16.161" stroke="#707070" stroke-miterlimit="10"/>
<defs>
<clipPath id="clip0_211_6474">
<rect width="12.9845" height="13.804" fill="white" transform="matrix(-0.99046 -0.137797 -0.137797 0.99046 64.9315 48.168)"/>
</clipPath>
</defs>
</svg>
