<svg width="95" height="95" viewBox="0 0 95 95" fill="none" xmlns="http://www.w3.org/2000/svg">
<path d="M71.25 71C84.2287 58.0213 84.2287 36.9787 71.25 24C58.2713 11.0213 37.2287 11.0213 24.25 24C11.2713 36.9787 11.2713 58.0213 24.25 71C37.2287 83.9787 58.2713 83.9787 71.25 71Z" fill="#285AA3"/>
<path d="M17.5 72.6122V18.0811H55.6155V72.6122H17.5Z" fill="#FFFDFD" stroke="#F2F2F2"/>
<path d="M28.0312 48.9219H43.9401V45.5775C43.9401 42.6187 41.5424 40.2195 38.5836 40.2195H33.3862C30.4289 40.2195 28.0312 42.6187 28.0312 45.5775V48.9219Z" fill="#C1D4FF"/>
<path d="M35.9857 42.5127C36.871 41.6275 37.3661 41.1323 38.2513 40.2471V33.2912H33.7216V40.2471C34.6053 41.1323 35.102 41.6275 35.9857 42.5127Z" fill="#EEA886"/>
<path d="M36.1148 22.2545C31.5696 22.2545 30.0994 25.3377 30.0994 27.3506C30.0994 29.3621 31.2636 31.9258 31.2636 31.9258H36.1148H40.9661C40.9661 31.9258 42.1316 29.3621 42.1316 27.3506C42.1316 25.3377 40.6615 22.2545 36.1148 22.2545Z" fill="#110D18"/>
<path d="M33.7216 36.949V38.8545C36.9924 38.6054 38.2513 36.949 38.2513 36.949H33.7216Z" fill="#322F36"/>
<path d="M31.3381 33.0923C31.3381 35.6824 33.436 37.7803 36.0261 37.7803C38.6163 37.7803 40.7154 35.6824 40.7154 33.0923C40.7154 30.5035 38.6163 28.4043 36.0261 28.4043C33.436 28.4043 31.3381 30.5035 31.3381 33.0923Z" fill="#EEA886"/>
<path d="M37.9513 34.5156H33.6834C32.3937 34.5156 31.3381 33.46 31.3381 32.1689V29.7366C31.3381 27.1076 33.4881 24.959 36.1158 24.959C38.7447 24.959 40.8947 27.1076 40.8947 29.7366V31.5709C40.8947 33.1898 39.5702 34.5156 37.9513 34.5156Z" fill="#EEA886"/>
<path d="M30.1226 32.413C30.1226 33.084 30.6665 33.6289 31.3375 33.6289C32.0105 33.6289 32.5544 33.084 32.5544 32.413C32.5544 31.742 32.0105 31.197 31.3375 31.197C30.6665 31.197 30.1226 31.742 30.1226 32.413Z" fill="#EEA886"/>
<path d="M39.6642 32.2723C39.6642 32.9433 40.2081 33.4883 40.8791 33.4883C41.5511 33.4883 42.0961 32.9433 42.0961 32.2723C42.0961 31.6013 41.5511 31.0564 40.8791 31.0564C40.2081 31.0564 39.6642 31.6013 39.6642 32.2723Z" fill="#EEA886"/>
<path d="M36.0123 23.0231C29.6369 23.0231 30.2534 28.6331 30.2534 28.6331L34.8357 29.3828H36.8633L41.7725 28.782C41.7725 28.782 42.389 23.0231 36.0123 23.0231Z" fill="#110D18"/>
<path d="M21.1743 17.5684V15.6456C21.1743 15.3417 21.295 15.0504 21.5098 14.8355C21.7247 14.6207 22.016 14.5 22.3199 14.5V14.5C22.4703 14.5 22.6193 14.5296 22.7583 14.5872C22.8972 14.6448 23.0235 14.7291 23.1299 14.8355C23.2363 14.9419 23.3207 15.0682 23.3782 15.2072C23.4358 15.3462 23.4654 15.4951 23.4654 15.6456V20.686C23.4654 20.7762 23.4476 20.8656 23.4131 20.949C23.3786 21.0324 23.3279 21.1082 23.2641 21.172C23.2003 21.2358 23.1245 21.2864 23.0411 21.321C22.9577 21.3555 22.8684 21.3733 22.7781 21.3733C22.6878 21.3733 22.5985 21.3555 22.5151 21.321C22.4317 21.2864 22.3559 21.2358 22.2921 21.172C22.2282 21.1082 22.1776 21.0324 22.1431 20.949C22.1085 20.8656 22.0908 20.7762 22.0908 20.686V16.161" stroke="#707070" stroke-miterlimit="10"/>
<path d="M46.6947 54.1074H26.4185V55.7972H46.6947V54.1074Z" fill="#626262"/>
<path d="M49.6543 57.1992H23.4624V58.1997H49.6543V57.1992Z" fill="#CCCCCC"/>
<path d="M49.6543 59.6006H23.4624V60.6011H49.6543V59.6006Z" fill="#CCCCCC"/>
<path d="M49.6543 62.0029H23.4624V63.0034H49.6543V62.0029Z" fill="#CCCCCC"/>
<path d="M49.6543 64.4053H23.4624V65.4057H49.6543V64.4053Z" fill="#CCCCCC"/>
<path d="M35.204 66.8066H23.4624V67.8071H35.204V66.8066Z" fill="#CCCCCC"/>
<g style="mix-blend-mode:multiply">
<path d="M52.0333 69.1246V23.5101L44.7054 22.2344L36.986 69.1246H52.0333Z" fill="#CCCCCC"/>
</g>
<path d="M79.856 29.7227L46.2029 24.2295L38.6277 70.6379L72.2808 76.1311L79.856 29.7227Z" fill="white"/>
<path d="M68.9503 33.5694L56.2725 31.5L56.0002 33.1677L68.6781 35.2371L68.9503 33.5694Z" fill="#626262"/>
<path d="M72.0625 37.389L55.6859 34.7158L55.5247 35.7032L71.9013 38.3764L72.0625 37.389Z" fill="#CCCCCC"/>
<path d="M71.6804 39.7269L55.3038 37.0537L55.1427 38.0411L71.5192 40.7143L71.6804 39.7269Z" fill="#CCCCCC"/>
<path d="M71.2985 42.0657L54.9219 39.3926L54.7607 40.38L71.1373 43.0531L71.2985 42.0657Z" fill="#CCCCCC"/>
<path d="M53.6396 31.4157L49.9683 30.8164L49.369 34.4878L53.0404 35.087L53.6396 31.4157Z" fill="#CCCCCC"/>
<path d="M66.8221 46.2227L54.1443 44.1533L53.8721 45.821L66.5499 47.8904L66.8221 46.2227Z" fill="#626262"/>
<path d="M70.0488 49.7161L53.6722 47.043L53.5111 48.0304L69.8877 50.7035L70.0488 49.7161Z" fill="#CCCCCC"/>
<path d="M69.6682 52.054L53.2916 49.3809L53.1304 50.3683L69.507 53.0414L69.6682 52.054Z" fill="#CCCCCC"/>
<path d="M69.2863 54.3929L52.9097 51.7197L52.7485 52.7071L69.1251 55.3803L69.2863 54.3929Z" fill="#CCCCCC"/>
<path d="M51.6274 43.7428L47.9561 43.1436L47.3568 46.8149L51.0282 47.4142L51.6274 43.7428Z" fill="#CCCCCC"/>
<path d="M64.8098 58.5509L52.132 56.4814L51.8597 58.1492L64.5375 60.2186L64.8098 58.5509Z" fill="#626262"/>
<path d="M68.0365 62.0433L51.6599 59.3701L51.4987 60.3576L67.8753 63.0307L68.0365 62.0433Z" fill="#CCCCCC"/>
<path d="M67.6559 64.3812L51.2793 61.708L51.1181 62.6954L67.4947 65.3686L67.6559 64.3812Z" fill="#CCCCCC"/>
<path d="M67.2739 66.72L50.8973 64.0469L50.7362 65.0343L67.1128 67.7074L67.2739 66.72Z" fill="#CCCCCC"/>
<path d="M49.6151 56.07L45.9437 55.4707L45.3444 59.1421L49.0158 59.7413L49.6151 56.07Z" fill="#CCCCCC"/>
<path d="M50.2248 31.7617C50.48 32.6308 50.7835 33.4851 51.1339 34.3204C51.1498 34.3712 51.1815 34.4157 51.2245 34.4473C51.2674 34.4788 51.3193 34.4958 51.3726 34.4958C51.4258 34.4958 51.4777 34.4788 51.5207 34.4473C51.5636 34.4157 51.5953 34.3712 51.6112 34.3204C52.4669 32.1152 54.0527 30.4516 55.5595 28.6893C55.6924 28.5338 55.5213 28.263 55.3276 28.3888C53.4327 29.6191 51.8789 32.0996 51.1339 34.1888H51.6112C51.2834 33.3229 50.9075 32.4759 50.4852 31.6519C50.4672 31.623 50.4395 31.6015 50.4071 31.5913C50.3746 31.581 50.3396 31.5826 50.3082 31.5958C50.2769 31.609 50.2513 31.633 50.236 31.6634C50.2207 31.6938 50.2167 31.7286 50.2248 31.7617Z" fill="#FF7171"/>
<path d="M48.2411 43.9189C48.4963 44.7881 48.7999 45.6423 49.1503 46.4776C49.1662 46.5285 49.1979 46.5729 49.2408 46.6045C49.2838 46.6361 49.3356 46.6531 49.3889 46.6531C49.4422 46.6531 49.4941 46.6361 49.537 46.6045C49.5799 46.5729 49.6117 46.5285 49.6276 46.4776C50.4833 44.2724 52.069 42.6089 53.5758 40.8466C53.7088 40.6911 53.5376 40.4203 53.3439 40.546C51.449 41.7763 49.8952 44.2568 49.1503 46.3461H49.6276C49.2997 45.4801 48.9238 44.6332 48.5016 43.8091C48.4836 43.7803 48.4559 43.7588 48.4234 43.7485C48.391 43.7382 48.3559 43.7399 48.3246 43.7531C48.2932 43.7663 48.2676 43.7902 48.2524 43.8206C48.2371 43.851 48.2331 43.8859 48.2411 43.9189Z" fill="#FF7171"/>
<path d="M46.2575 56.0751C46.5127 56.9443 46.8163 57.7985 47.1667 58.6339C47.1826 58.6847 47.2143 58.7292 47.2572 58.7608C47.3001 58.7923 47.352 58.8093 47.4053 58.8093C47.4586 58.8093 47.5105 58.7923 47.5534 58.7608C47.5963 58.7292 47.628 58.6847 47.6439 58.6339C48.4997 56.4287 50.0854 54.7651 51.5922 53.0028C51.7251 52.8473 51.554 52.5765 51.3603 52.7023C49.4654 53.9326 47.9116 56.4131 47.1667 58.5023H47.6439C47.3161 57.6363 46.9402 56.7894 46.518 55.9654C46.4999 55.9365 46.4722 55.915 46.4398 55.9047C46.4074 55.8944 46.3723 55.896 46.341 55.9093C46.3096 55.9225 46.284 55.9464 46.2687 55.9768C46.2534 56.0072 46.2494 56.0421 46.2575 56.0751Z" fill="#FF7171"/>
</svg>
