<svg width="95" height="95" viewBox="0 0 95 95" fill="none" xmlns="http://www.w3.org/2000/svg">
<path d="M70.75 71C83.7287 58.0213 83.7287 36.9787 70.75 24C57.7713 11.0213 36.7287 11.0213 23.75 24C10.7713 36.9787 10.7713 58.0213 23.75 71C36.7287 83.9787 57.7713 83.9787 70.75 71Z" fill="#285AA3"/>
<path d="M24.5 74.6122V20.0811H62.6155V74.6122H24.5Z" fill="#FFFDFD" stroke="#F2F2F2"/>
<path d="M28.1743 19.5684V17.6456C28.1743 17.3417 28.295 17.0504 28.5098 16.8355C28.7247 16.6207 29.016 16.5 29.3199 16.5V16.5C29.4703 16.5 29.6193 16.5296 29.7583 16.5872C29.8972 16.6448 30.0235 16.7291 30.1299 16.8355C30.2363 16.9419 30.3207 17.0682 30.3782 17.2072C30.4358 17.3462 30.4654 17.4951 30.4654 17.6456V22.686C30.4654 22.7762 30.4476 22.8656 30.4131 22.949C30.3786 23.0324 30.3279 23.1082 30.2641 23.172C30.2003 23.2358 30.1245 23.2864 30.0411 23.321C29.9577 23.3555 29.8684 23.3733 29.7781 23.3733C29.6878 23.3733 29.5985 23.3555 29.5151 23.321C29.4317 23.2864 29.3559 23.2358 29.2921 23.172C29.2282 23.1082 29.1776 23.0324 29.1431 22.949C29.1085 22.8656 29.0908 22.7762 29.0908 22.686V18.161" stroke="#707070" stroke-miterlimit="10"/>
<path fill-rule="evenodd" clip-rule="evenodd" d="M42.9449 27.9536C43.175 27.9586 43.3574 28.1491 43.3525 28.3792C43.3476 28.601 43.1703 28.7786 42.9513 28.7865L42.9268 28.7867L30.8436 28.5244C30.6135 28.5194 30.4311 28.3288 30.4361 28.0988C30.4409 27.8769 30.6182 27.6993 30.8372 27.6914L30.8617 27.6912L42.9449 27.9536Z" fill="#285AA3"/>
<path fill-rule="evenodd" clip-rule="evenodd" d="M47.7487 30.1865C47.9787 30.1916 48.1611 30.3822 48.156 30.6123C48.1511 30.8341 47.9737 31.0116 47.7547 31.0194L47.7302 31.0196L35.6342 30.7519C35.4041 30.7468 35.2217 30.5562 35.2268 30.3261C35.2317 30.1043 35.4092 29.9268 35.6281 29.9189L35.6526 29.9188L47.7487 30.1865Z" fill="#285AA3"/>
<path fill-rule="evenodd" clip-rule="evenodd" d="M33.3256 29.8648C33.5557 29.8695 33.7383 30.0599 33.7336 30.2899C33.729 30.5118 33.5519 30.6896 33.333 30.6978L33.3085 30.698L30.8459 30.6474C30.6158 30.6426 30.4331 30.4523 30.4378 30.2222C30.4424 30.0004 30.6196 29.8226 30.8385 29.8144L30.863 29.8142L33.3256 29.8648Z" fill="#285AA3"/>
<path fill-rule="evenodd" clip-rule="evenodd" d="M34.8861 37.4713C35.1162 37.4758 35.299 37.666 35.2945 37.8961C35.2902 38.1179 35.1132 38.2959 34.8943 38.3043L34.8698 38.3045L30.6743 38.2222C30.4442 38.2177 30.2613 38.0275 30.2658 37.7975C30.2702 37.5756 30.4472 37.3977 30.6661 37.3893L30.6906 37.389L34.8861 37.4713Z" fill="#285AA3"/>
<path fill-rule="evenodd" clip-rule="evenodd" d="M38.214 35.1289C38.4441 35.1338 38.6267 35.3243 38.6218 35.5543C38.6171 35.7762 38.4398 35.9539 38.2209 35.9619L38.1964 35.9621L30.721 35.8038C30.4909 35.7989 30.3084 35.6085 30.3133 35.3784C30.318 35.1566 30.4952 34.9789 30.7142 34.9709L30.7387 34.9707L38.214 35.1289Z" fill="#285AA3"/>
<path fill-rule="evenodd" clip-rule="evenodd" d="M34.992 32.3532C35.2221 32.3584 35.4043 32.5491 35.3991 32.7792C35.3941 33.001 35.2165 33.1785 34.9976 33.1862L34.9731 33.1863L30.7829 33.0912C30.5529 33.086 30.3706 32.8953 30.3758 32.6652C30.3809 32.4434 30.5584 32.266 30.7774 32.2582L30.8019 32.2581L34.992 32.3532Z" fill="#285AA3"/>
<path fill-rule="evenodd" clip-rule="evenodd" d="M43.8331 32.5391C44.0632 32.544 44.2458 32.7345 44.2409 32.9646C44.2362 33.1864 44.0589 33.3641 43.84 33.3721L43.8155 33.3723L36.8326 33.2241C36.6025 33.2193 36.42 33.0288 36.4249 32.7987C36.4296 32.5769 36.6068 32.3992 36.8258 32.3912L36.8503 32.391L43.8331 32.5391Z" fill="#285AA3"/>
<path fill-rule="evenodd" clip-rule="evenodd" d="M50.7634 44.6545L49.5249 47.1241L44.5867 71.7878L46.0159 72.0781L50.9568 47.4007L50.7634 44.6545Z" fill="#285AA3"/>
<path fill-rule="evenodd" clip-rule="evenodd" d="M48.5145 65.0424C48.7347 65.0824 48.8835 65.2873 48.8566 65.5067L48.8529 65.5311L47.7618 71.5314C47.7211 71.7551 47.5106 71.9044 47.2884 71.8723L47.2645 71.8681L44.6784 71.3429C44.4509 71.2967 44.3039 71.0748 44.3501 70.8473C44.3947 70.6279 44.6026 70.4833 44.8214 70.5147L44.8457 70.519L47.0113 70.9587L48.0257 65.3807C48.0657 65.1605 48.2706 65.0117 48.49 65.0386L48.5145 65.0424Z" fill="#285AA3"/>
<path fill-rule="evenodd" clip-rule="evenodd" d="M48.1385 55.6863L48.9279 55.8466C49.2682 55.9157 49.5957 55.6988 49.662 55.3721L50.9164 49.4051C50.9855 49.0648 50.7686 48.7373 50.4419 48.671L49.6525 48.5106C49.3122 48.4415 48.9847 48.6584 48.9183 48.9851L47.664 54.9521C47.5948 55.2924 47.8118 55.6199 48.1385 55.6863Z" fill="#285AA3"/>
<path fill-rule="evenodd" clip-rule="evenodd" d="M47.3188 62.2197C47.537 62.2699 47.6762 62.4814 47.6392 62.6993L47.6343 62.7236L46.9058 65.892C46.8538 66.1183 46.6282 66.2595 46.4019 66.2075C46.1837 66.1573 46.0446 65.9458 46.0816 65.7279L46.0864 65.7036L46.815 62.5352C46.867 62.3089 47.0926 62.1677 47.3188 62.2197Z" fill="#285AA3"/>
<path fill-rule="evenodd" clip-rule="evenodd" d="M44.8585 37.5592L43.9628 40.1551L42.3492 65.2673L43.8034 65.3642L45.4171 40.252L44.8585 37.5592Z" fill="#285AA3"/>
<g style="mix-blend-mode:multiply">
<path d="M51.5332 69.1246V23.5101L44.2053 22.2344L36.4858 69.1246H51.5332Z" fill="#CCCCCC"/>
</g>
<path d="M79.2283 30.4932L45.5752 25L38 71.4084L71.6531 76.9016L79.2283 30.4932Z" fill="white"/>
<path d="M56.9443 47.7498L57.0415 47.0453C57.052 46.9693 57.0474 46.8919 57.028 46.8176C57.0086 46.7433 56.9748 46.6736 56.9284 46.6124C56.882 46.5512 56.8241 46.4997 56.7578 46.4609C56.6916 46.4221 56.6183 46.3967 56.5423 46.3863L50.3766 45.5359C50.223 45.5148 50.0672 45.5555 49.9436 45.6491C49.82 45.7428 49.7387 45.8817 49.7175 46.0353L48.0002 58.4874L63.949 60.687L65.5692 48.9392L56.9443 47.7498Z" fill="#1251B3"/>
<path d="M66.1733 49.4599L50.5341 47.3031L48.0002 58.4888L63.8713 60.6776L66.1733 49.4599Z" fill="white"/>
<path d="M63.9493 60.6894L48.0003 58.4899L51.2344 47.5443C51.2802 47.3894 51.38 47.256 51.5157 47.1684C51.6515 47.0808 51.8141 47.0447 51.9742 47.0668L66.5702 49.0797C66.6665 49.093 66.7587 49.1269 66.8407 49.1792C66.9227 49.2314 66.9924 49.3007 67.0452 49.3824C67.0979 49.4641 67.1323 49.5562 67.1462 49.6524C67.16 49.7486 67.1529 49.8467 67.1254 49.9399L63.9493 60.6894Z" fill="#285AA3"/>
<path d="M69.4076 52.5378C71.0315 51.3076 71.3506 48.9938 70.1203 47.3698C68.89 45.7459 66.5762 45.4268 64.9523 46.6571C63.3284 47.8874 63.0093 50.2012 64.2396 51.8251C65.4699 53.449 67.7837 53.7681 69.4076 52.5378Z" fill="#285AA3"/>
<path d="M66.6578 53.3862C65.9086 53.2828 65.207 52.9595 64.6416 52.4573C64.0762 51.9551 63.6724 51.2966 63.4812 50.5649C63.2901 49.8332 63.3202 49.0613 63.5677 48.3467C63.8152 47.6322 64.2691 47.007 64.8719 46.5504C65.4747 46.0938 66.1994 45.8261 66.9543 45.7813C67.7092 45.7365 68.4604 45.9166 69.113 46.2987C69.7656 46.6809 70.2902 47.2479 70.6205 47.9282C70.9508 48.6085 71.072 49.3714 70.9688 50.1206C70.829 51.1248 70.2967 52.0326 69.4885 52.6448C68.6803 53.257 67.6623 53.5236 66.6578 53.3862ZM67.6657 46.0776C66.9693 45.9815 66.2602 46.0941 65.6278 46.4011C64.9954 46.7081 64.4683 47.1957 64.1131 47.8023C63.7578 48.4089 63.5905 49.1072 63.6321 49.8089C63.6738 50.5106 63.9226 51.1842 64.3471 51.7445C64.7716 52.3048 65.3527 52.7266 66.0169 52.9566C66.6811 53.1867 67.3987 53.2146 68.0788 53.0368C68.7589 52.859 69.371 52.4835 69.8377 51.9579C70.3044 51.4322 70.6047 50.78 70.7007 50.0836C70.8285 49.1501 70.5807 48.204 70.0117 47.4529C69.4427 46.7019 68.599 46.2073 67.6657 46.0776Z" fill="white"/>
<path d="M65.5121 48.6934L65.1552 51.2809C65.1155 51.569 68.6335 52.0541 68.6732 51.7661L69.0301 49.1785L65.5121 48.6934ZM67.2595 50.3346L67.1584 51.0679C67.1553 51.0914 67.1475 51.114 67.1356 51.1344C67.1238 51.1549 67.1079 51.1728 67.0891 51.1871C67.0703 51.2015 67.0488 51.2119 67.0259 51.2179C67.0031 51.224 66.9792 51.2254 66.9558 51.2222C66.9323 51.2189 66.9098 51.2111 66.8894 51.1991C66.869 51.1871 66.8511 51.1712 66.8369 51.1524C66.8226 51.1335 66.8123 51.1119 66.8064 51.089C66.8005 51.0661 66.7991 51.0423 66.8025 51.0189L66.9038 50.2838C66.8195 50.2303 66.756 50.1495 66.7241 50.0548C66.6921 49.9602 66.6935 49.8574 66.7281 49.7637C66.7627 49.67 66.8284 49.591 66.9142 49.5398C67 49.4886 67.1007 49.4684 67.1996 49.4825C67.2985 49.4966 67.3896 49.5442 67.4576 49.6173C67.5257 49.6905 67.5667 49.7847 67.5737 49.8843C67.5807 49.984 67.5533 50.083 67.4962 50.165C67.439 50.2469 67.3555 50.3067 67.2595 50.3346Z" fill="white"/>
<path d="M68.7478 48.9531L68.3917 48.904L68.4157 48.7297C68.4557 48.4394 68.3788 48.145 68.2018 47.9114C68.0248 47.6777 67.7622 47.524 67.4719 47.4839C67.1815 47.4439 66.8871 47.5208 66.6535 47.6978C66.4199 47.8748 66.2661 48.1374 66.2261 48.4278L66.202 48.602L65.8459 48.5529L65.87 48.3787C65.923 47.9939 66.1268 47.6459 66.4364 47.4113C66.7461 47.1767 67.1362 47.0748 67.521 47.1278C67.9058 47.1809 68.2538 47.3847 68.4883 47.6943C68.7229 48.0039 68.8249 48.394 68.7718 48.7789L68.7478 48.9531Z" fill="white"/>
</svg>
