<svg width="20" height="20" viewBox="0 0 20 20" fill="none" xmlns="http://www.w3.org/2000/svg">
<path d="M7.50016 8.33332H8.3335C8.55451 8.33332 8.76647 8.24553 8.92275 8.08925C9.07903 7.93296 9.16683 7.721 9.16683 7.49999C9.16683 7.27898 9.07903 7.06701 8.92275 6.91073C8.76647 6.75445 8.55451 6.66666 8.3335 6.66666H7.50016C7.27915 6.66666 7.06719 6.75445 6.91091 6.91073C6.75463 7.06701 6.66683 7.27898 6.66683 7.49999C6.66683 7.721 6.75463 7.93296 6.91091 8.08925C7.06719 8.24553 7.27915 8.33332 7.50016 8.33332ZM7.50016 9.99999C7.27915 9.99999 7.06719 10.0878 6.91091 10.2441C6.75463 10.4003 6.66683 10.6123 6.66683 10.8333C6.66683 11.0543 6.75463 11.2663 6.91091 11.4226C7.06719 11.5789 7.27915 11.6667 7.50016 11.6667H12.5002C12.7212 11.6667 12.9331 11.5789 13.0894 11.4226C13.2457 11.2663 13.3335 11.0543 13.3335 10.8333C13.3335 10.6123 13.2457 10.4003 13.0894 10.2441C12.9331 10.0878 12.7212 9.99999 12.5002 9.99999H7.50016ZM16.6668 7.44999C16.6581 7.37344 16.6414 7.29802 16.6168 7.22499V7.14999C16.5768 7.06431 16.5233 6.98554 16.4585 6.91666L11.4585 1.91666C11.3896 1.85184 11.3108 1.79839 11.2252 1.75832C11.2003 1.75479 11.175 1.75479 11.1502 1.75832C11.0655 1.70977 10.972 1.67861 10.8752 1.66666H5.8335C5.17045 1.66666 4.53457 1.93005 4.06573 2.39889C3.59689 2.86773 3.3335 3.50362 3.3335 4.16666V15.8333C3.3335 16.4964 3.59689 17.1322 4.06573 17.6011C4.53457 18.0699 5.17045 18.3333 5.8335 18.3333H14.1668C14.8299 18.3333 15.4658 18.0699 15.9346 17.6011C16.4034 17.1322 16.6668 16.4964 16.6668 15.8333V7.49999C16.6668 7.49999 16.6668 7.49999 16.6668 7.44999ZM11.6668 4.50832L13.8252 6.66666H12.5002C12.2791 6.66666 12.0672 6.57886 11.9109 6.42258C11.7546 6.2663 11.6668 6.05434 11.6668 5.83332V4.50832ZM15.0002 15.8333C15.0002 16.0543 14.9124 16.2663 14.7561 16.4226C14.5998 16.5789 14.3878 16.6667 14.1668 16.6667H5.8335C5.61248 16.6667 5.40052 16.5789 5.24424 16.4226C5.08796 16.2663 5.00016 16.0543 5.00016 15.8333V4.16666C5.00016 3.94564 5.08796 3.73368 5.24424 3.5774C5.40052 3.42112 5.61248 3.33332 5.8335 3.33332H10.0002V5.83332C10.0002 6.49636 10.2636 7.13225 10.7324 7.60109C11.2012 8.06993 11.8371 8.33332 12.5002 8.33332H15.0002V15.8333ZM12.5002 13.3333H7.50016C7.27915 13.3333 7.06719 13.4211 6.91091 13.5774C6.75463 13.7337 6.66683 13.9456 6.66683 14.1667C6.66683 14.3877 6.75463 14.5996 6.91091 14.7559C7.06719 14.9122 7.27915 15 7.50016 15H12.5002C12.7212 15 12.9331 14.9122 13.0894 14.7559C13.2457 14.5996 13.3335 14.3877 13.3335 14.1667C13.3335 13.9456 13.2457 13.7337 13.0894 13.5774C12.9331 13.4211 12.7212 13.3333 12.5002 13.3333Z" fill="#1E53F5"/>
</svg>
