<svg width="20" height="20" viewBox="0 0 20 20" fill="none" xmlns="http://www.w3.org/2000/svg">
    <path d="M13.8502 5.175C13.7639 5.1067 13.665 5.05616 13.5591 5.0263C13.4531 4.99644 13.3424 4.98785 13.2331 5.00102C13.1239 5.01419 13.0184 5.04886 12.9226 5.10304C12.8268 5.15721 12.7427 5.22982 12.6752 5.31667L6.84182 12.8167L3.98349 9.33333C3.91645 9.24408 3.83215 9.16922 3.73562 9.11317C3.63908 9.05713 3.53227 9.02105 3.42152 9.00708C3.31077 8.99311 3.19835 9.00153 3.09092 9.03184C2.98349 9.06216 2.88324 9.11374 2.79613 9.18354C2.70902 9.25334 2.63682 9.33993 2.58382 9.43817C2.53082 9.53641 2.49809 9.6443 2.48759 9.75542C2.47708 9.86655 2.48901 9.97866 2.52266 10.0851C2.55631 10.1915 2.61101 10.2901 2.68349 10.375L6.15849 14.6917C6.23692 14.7883 6.33602 14.8662 6.4485 14.9196C6.56099 14.9729 6.684 15.0004 6.80849 15C6.94064 15.0059 7.07229 14.9803 7.19257 14.9252C7.31284 14.8701 7.41828 14.7872 7.50016 14.6833L14.0252 6.35C14.0917 6.26169 14.14 6.16102 14.1672 6.05386C14.1944 5.9467 14.2001 5.8352 14.1838 5.72584C14.1675 5.61648 14.1296 5.51146 14.0723 5.41689C14.0151 5.32232 13.9395 5.24009 13.8502 5.175ZM18.0168 5.175C17.9306 5.1067 17.8316 5.05616 17.7257 5.0263C17.6198 4.99644 17.509 4.98785 17.3998 5.00102C17.2906 5.01419 17.185 5.04886 17.0892 5.10304C16.9935 5.15721 16.9094 5.22982 16.8418 5.31667L11.0085 12.8167L10.5002 12.1917L9.45016 13.5417L10.3668 14.6833C10.4453 14.78 10.5444 14.8579 10.6568 14.9113C10.7693 14.9646 10.8923 14.9921 11.0168 14.9917C11.142 14.9911 11.2654 14.9623 11.378 14.9075C11.4905 14.8527 11.5892 14.7732 11.6668 14.675L18.1918 6.34167C18.257 6.25361 18.3043 6.15356 18.3308 6.04723C18.3573 5.94091 18.3626 5.8304 18.3463 5.72204C18.33 5.61367 18.2926 5.50957 18.236 5.4157C18.1795 5.32184 18.105 5.24004 18.0168 5.175Z" fill="currentColor"/>
    <path d="M7.25835 10.8833L8.33335 9.53333L8.16668 9.33333C8.10089 9.24218 8.01734 9.16528 7.92105 9.10727C7.82476 9.04925 7.71773 9.01132 7.60641 8.99575C7.49508 8.98018 7.38175 8.98729 7.27324 9.01667C7.16473 9.04604 7.06329 9.09706 6.97501 9.16666C6.88941 9.23543 6.81824 9.32044 6.76559 9.4168C6.71295 9.51317 6.67987 9.61899 6.66825 9.72818C6.65663 9.83737 6.66671 9.94778 6.69791 10.0531C6.7291 10.1583 6.78079 10.2564 6.85001 10.3417L7.25835 10.8833Z" fill="currentColor"/>
</svg>
