<svg width="10" height="6" viewBox="0 0 10 6" fill="none" xmlns="http://www.w3.org/2000/svg">
    <path d="M4.40825 5.35833L0.874917 1.825C0.79681 1.74753 0.734814 1.65536 0.692507 1.55381C0.6502 1.45226 0.628418 1.34334 0.628418 1.23333C0.628418 1.12332 0.6502 1.0144 0.692507 0.912851C0.734814 0.811301 0.79681 0.719134 0.874917 0.641665C1.03105 0.486456 1.24226 0.399338 1.46242 0.399338C1.68257 0.399338 1.89378 0.486456 2.04992 0.641665L4.99992 3.59166L7.94992 0.641665C8.10605 0.486456 8.31726 0.399338 8.53742 0.399338C8.75757 0.399338 8.96878 0.486456 9.12492 0.641665C9.20215 0.719532 9.26326 0.811878 9.30473 0.91341C9.3462 1.01494 9.36722 1.12366 9.36658 1.23333C9.36722 1.343 9.3462 1.45172 9.30473 1.55325C9.26326 1.65478 9.20215 1.74713 9.12492 1.825L5.59158 5.35833C5.51411 5.43644 5.42195 5.49843 5.3204 5.54074C5.21885 5.58305 5.10993 5.60483 4.99992 5.60483C4.88991 5.60483 4.78098 5.58305 4.67944 5.54074C4.57789 5.49843 4.48572 5.43644 4.40825 5.35833Z" fill="currentColor"/>
</svg>