<svg width="14" height="18" viewBox="0 0 14 18" fill="none" xmlns="http://www.w3.org/2000/svg">
<path d="M7.00016 9.83334C6.77915 9.83334 6.56719 9.92114 6.41091 10.0774C6.25463 10.2337 6.16683 10.4457 6.16683 10.6667V13.1667C6.16683 13.3877 6.25463 13.5996 6.41091 13.7559C6.56719 13.9122 6.77915 14 7.00016 14C7.22118 14 7.43314 13.9122 7.58942 13.7559C7.7457 13.5996 7.8335 13.3877 7.8335 13.1667V10.6667C7.8335 10.4457 7.7457 10.2337 7.58942 10.0774C7.43314 9.92114 7.22118 9.83334 7.00016 9.83334ZM11.1668 6.5V4.83334C11.1668 3.72827 10.7278 2.66846 9.94644 1.88706C9.16504 1.10566 8.10523 0.666672 7.00016 0.666672C5.89509 0.666672 4.83529 1.10566 4.05388 1.88706C3.27248 2.66846 2.8335 3.72827 2.8335 4.83334V6.5C2.17045 6.5 1.53457 6.7634 1.06573 7.23224C0.596888 7.70108 0.333496 8.33696 0.333496 9V14.8333C0.333496 15.4964 0.596888 16.1323 1.06573 16.6011C1.53457 17.0699 2.17045 17.3333 2.8335 17.3333H11.1668C11.8299 17.3333 12.4658 17.0699 12.9346 16.6011C13.4034 16.1323 13.6668 15.4964 13.6668 14.8333V9C13.6668 8.33696 13.4034 7.70108 12.9346 7.23224C12.4658 6.7634 11.8299 6.5 11.1668 6.5ZM4.50016 4.83334C4.50016 4.1703 4.76355 3.53441 5.2324 3.06557C5.70124 2.59673 6.33712 2.33334 7.00016 2.33334C7.6632 2.33334 8.29909 2.59673 8.76793 3.06557C9.23677 3.53441 9.50016 4.1703 9.50016 4.83334V6.5H4.50016V4.83334ZM12.0002 14.8333C12.0002 15.0544 11.9124 15.2663 11.7561 15.4226C11.5998 15.5789 11.3878 15.6667 11.1668 15.6667H2.8335C2.61248 15.6667 2.40052 15.5789 2.24424 15.4226C2.08796 15.2663 2.00016 15.0544 2.00016 14.8333V9C2.00016 8.77899 2.08796 8.56703 2.24424 8.41075C2.40052 8.25447 2.61248 8.16667 2.8335 8.16667H11.1668C11.3878 8.16667 11.5998 8.25447 11.7561 8.41075C11.9124 8.56703 12.0002 8.77899 12.0002 9V14.8333Z" fill="white"/>
</svg>
