<svg width="20" height="20" viewBox="0 0 20 20" fill="none" xmlns="http://www.w3.org/2000/svg">
<path d="M17.0832 12.5833C16.8853 12.4851 16.6566 12.4694 16.4472 12.5397C16.2378 12.61 16.0649 12.7606 15.9665 12.9583C15.4391 14.0235 14.6364 14.9283 13.6417 15.579C12.647 16.2297 11.4965 16.6026 10.3092 16.6591C9.12196 16.7156 7.94117 16.4537 6.88916 15.9005C5.83715 15.3472 4.95219 14.5228 4.32593 13.5126C3.69966 12.5023 3.35488 11.343 3.32729 10.1547C3.2997 8.96644 3.59031 7.79239 4.16901 6.75417C4.74771 5.71595 5.59347 4.85133 6.61866 4.24987C7.64386 3.6484 8.81122 3.33196 9.99983 3.33333C11.2424 3.32795 12.4614 3.67303 13.5168 4.32896C14.5721 4.98489 15.4212 5.92509 15.9665 7.04166C16.066 7.24058 16.2404 7.39183 16.4513 7.46216C16.6623 7.53249 16.8926 7.51612 17.0915 7.41666C17.2904 7.31721 17.4417 7.14281 17.512 6.93183C17.5823 6.72085 17.566 6.49058 17.4665 6.29166C16.6303 4.60895 15.25 3.25821 13.5496 2.45869C11.8492 1.65916 9.92845 1.45778 8.09917 1.88723C6.26989 2.31667 4.63943 3.35174 3.47244 4.82443C2.30544 6.29712 1.67041 8.12098 1.67041 10C1.67041 11.879 2.30544 13.7029 3.47244 15.1756C4.63943 16.6483 6.26989 17.6833 8.09917 18.1128C9.92845 18.5422 11.8492 18.3408 13.5496 17.5413C15.25 16.7418 16.6303 15.391 17.4665 13.7083C17.5162 13.6095 17.5456 13.5017 17.5532 13.3913C17.5608 13.281 17.5463 13.1702 17.5106 13.0655C17.475 12.9608 17.4188 12.8642 17.3454 12.7814C17.272 12.6986 17.1829 12.6313 17.0832 12.5833ZM17.4998 9.16666H9.50816L11.4248 7.25833C11.5025 7.18063 11.5642 7.08839 11.6062 6.98687C11.6483 6.88535 11.6699 6.77655 11.6699 6.66666C11.6699 6.55678 11.6483 6.44797 11.6062 6.34646C11.5642 6.24494 11.5025 6.1527 11.4248 6.075C11.3471 5.9973 11.2549 5.93566 11.1534 5.89361C11.0519 5.85156 10.943 5.82992 10.8332 5.82992C10.7233 5.82992 10.6145 5.85156 10.513 5.89361C10.4114 5.93566 10.3192 5.9973 10.2415 6.075L6.90816 9.40833C6.8323 9.48758 6.77283 9.58104 6.73316 9.68333C6.64982 9.88622 6.64982 10.1138 6.73316 10.3167C6.77283 10.419 6.8323 10.5124 6.90816 10.5917L10.2415 13.925C10.319 14.0031 10.4111 14.0651 10.5127 14.1074C10.6142 14.1497 10.7232 14.1715 10.8332 14.1715C10.9432 14.1715 11.0521 14.1497 11.1536 14.1074C11.2552 14.0651 11.3474 14.0031 11.4248 13.925C11.5029 13.8475 11.5649 13.7554 11.6072 13.6538C11.6495 13.5523 11.6713 13.4433 11.6713 13.3333C11.6713 13.2233 11.6495 13.1144 11.6072 13.0128C11.5649 12.9113 11.5029 12.8191 11.4248 12.7417L9.50816 10.8333H17.4998C17.7208 10.8333 17.9328 10.7455 18.0891 10.5893C18.2454 10.433 18.3332 10.221 18.3332 10C18.3332 9.77898 18.2454 9.56702 18.0891 9.41074C17.9328 9.25446 17.7208 9.16666 17.4998 9.16666Z" fill="#1E53F5"/>
</svg>
