<svg width="20" height="20" viewBox="0 0 20 20" fill="none" xmlns="http://www.w3.org/2000/svg">
    <path d="M3.3335 10C3.3335 10.221 3.42129 10.433 3.57757 10.5893C3.73385 10.7455 3.94582 10.8333 4.16683 10.8333H10.4918L8.57516 12.7417C8.49706 12.8191 8.43506 12.9113 8.39275 13.0129C8.35045 13.1144 8.32866 13.2233 8.32866 13.3333C8.32866 13.4433 8.35045 13.5523 8.39275 13.6538C8.43506 13.7554 8.49706 13.8475 8.57516 13.925C8.65263 14.0031 8.7448 14.0651 8.84635 14.1074C8.9479 14.1497 9.05682 14.1715 9.16683 14.1715C9.27684 14.1715 9.38576 14.1497 9.48731 14.1074C9.58886 14.0651 9.68103 14.0031 9.7585 13.925L13.0918 10.5917C13.1677 10.5124 13.2272 10.419 13.2668 10.3167C13.3502 10.1138 13.3502 9.88622 13.2668 9.68334C13.2272 9.58105 13.1677 9.48759 13.0918 9.40834L9.7585 6.07501C9.6808 5.99731 9.58856 5.93567 9.48704 5.89362C9.38552 5.85157 9.27671 5.82993 9.16683 5.82993C9.05695 5.82993 8.94814 5.85157 8.84662 5.89362C8.7451 5.93567 8.65286 5.99731 8.57516 6.07501C8.49746 6.1527 8.43583 6.24495 8.39378 6.34646C8.35173 6.44798 8.33009 6.55679 8.33009 6.66667C8.33009 6.77655 8.35173 6.88536 8.39378 6.98688C8.43583 7.0884 8.49746 7.18064 8.57516 7.25834L10.4918 9.16667H4.16683C3.94582 9.16667 3.73385 9.25447 3.57757 9.41075C3.42129 9.56703 3.3335 9.77899 3.3335 10ZM14.1668 1.66667H5.8335C5.17045 1.66667 4.53457 1.93006 4.06573 2.3989C3.59689 2.86775 3.3335 3.50363 3.3335 4.16667V6.66667C3.3335 6.88769 3.42129 7.09965 3.57757 7.25593C3.73385 7.41221 3.94582 7.5 4.16683 7.5C4.38784 7.5 4.5998 7.41221 4.75609 7.25593C4.91237 7.09965 5.00016 6.88769 5.00016 6.66667V4.16667C5.00016 3.94566 5.08796 3.7337 5.24424 3.57742C5.40052 3.42114 5.61248 3.33334 5.8335 3.33334H14.1668C14.3878 3.33334 14.5998 3.42114 14.7561 3.57742C14.9124 3.7337 15.0002 3.94566 15.0002 4.16667V15.8333C15.0002 16.0544 14.9124 16.2663 14.7561 16.4226C14.5998 16.5789 14.3878 16.6667 14.1668 16.6667H5.8335C5.61248 16.6667 5.40052 16.5789 5.24424 16.4226C5.08796 16.2663 5.00016 16.0544 5.00016 15.8333V13.3333C5.00016 13.1123 4.91237 12.9004 4.75609 12.7441C4.5998 12.5878 4.38784 12.5 4.16683 12.5C3.94582 12.5 3.73385 12.5878 3.57757 12.7441C3.42129 12.9004 3.3335 13.1123 3.3335 13.3333V15.8333C3.3335 16.4964 3.59689 17.1323 4.06573 17.6011C4.53457 18.0699 5.17045 18.3333 5.8335 18.3333H14.1668C14.8299 18.3333 15.4658 18.0699 15.9346 17.6011C16.4034 17.1323 16.6668 16.4964 16.6668 15.8333V4.16667C16.6668 3.50363 16.4034 2.86775 15.9346 2.3989C15.4658 1.93006 14.8299 1.66667 14.1668 1.66667Z" fill="currentColor"/>
</svg>
