<?xml version="1.0" standalone="no"?>
<!DOCTYPE svg PUBLIC "-//W3C//DTD SVG 20010904//EN"
 "http://www.w3.org/TR/2001/REC-SVG-20010904/DTD/svg10.dtd">
<svg version="1.0" xmlns="http://www.w3.org/2000/svg"
 width="512.000000pt" height="512.000000pt" viewBox="0 0 512.000000 512.000000"
 preserveAspectRatio="xMidYMid meet">
<metadata>
Created by potrace 1.14, written by Peter Selinger 2001-2017
</metadata>
<g transform="translate(0.000000,512.000000) scale(0.100000,-0.100000)"
fill="#000000" stroke="none">
<path d="M402 5105 c-52 -37 -46 -45 350 -442 404 -405 413 -412 503 -400 25
4 58 13 73 21 15 8 192 180 395 383 390 392 397 401 345 437 -19 14 -120 16
-833 16 -720 0 -813 -2 -833 -15z"/>
<path d="M2745 5106 c-27 -7 -80 -26 -116 -44 -59 -28 -112 -78 -553 -519
-268 -268 -495 -501 -503 -517 -21 -40 -20 -133 0 -171 19 -36 222 -237 257
-255 35 -18 129 -16 168 4 37 19 1403 1381 1431 1427 24 39 17 65 -21 78 -45
16 -598 13 -663 -3z"/>
<path d="M4095 5086 c-141 -35 -94 7 -993 -890 -458 -457 -840 -843 -847 -857
-22 -42 -28 -101 -15 -149 10 -36 33 -66 119 -154 60 -61 123 -117 146 -127
53 -25 121 -24 168 1 38 20 2096 2071 2116 2109 15 28 14 38 -9 61 -19 19 -33
20 -327 19 -210 0 -324 -5 -358 -13z"/>
<path d="M74 4759 c-18 -20 -19 -40 -18 -333 1 -310 1 -311 27 -389 15 -42 38
-95 52 -117 14 -23 870 -885 1901 -1916 1819 -1819 1878 -1877 1948 -1910 108
-52 175 -60 471 -58 324 2 299 1 325 22 17 14 20 23 14 46 -5 20 -681 702
-2308 2330 -1266 1265 -2314 2311 -2330 2324 -36 28 -58 28 -82 1z"/>
<path d="M3992 3738 c-720 -720 -1050 -1055 -1063 -1083 -23 -49 -24 -125 -3
-168 9 -18 64 -80 122 -139 85 -86 116 -111 154 -124 51 -17 101 -13 152 11
17 8 401 385 852 838 590 591 829 836 848 872 58 106 65 157 66 480 0 248 -2
300 -15 325 -35 68 13 112 -1113 -1012z"/>
<path d="M73 3419 c-13 -4 -26 -20 -29 -36 -18 -68 -8 -654 11 -732 8 -32
2531 -2556 2570 -2571 51 -19 136 -24 462 -24 282 -1 324 1 338 15 11 10 14
24 10 41 -8 32 -3284 3295 -3323 3309 -9 4 -27 3 -39 -2z"/>
<path d="M5052 3422 c-28 -4 -1423 -1395 -1448 -1443 -22 -43 -22 -124 0 -171
10 -20 68 -85 130 -146 98 -95 118 -111 159 -120 31 -6 63 -6 95 0 45 10 67
30 530 491 266 265 497 501 513 524 16 24 42 73 57 110 26 68 26 70 30 372 2
168 1 319 -3 338 -6 36 -28 51 -63 45z"/>
<path d="M36 2068 c-14 -19 -16 -65 -16 -305 0 -182 4 -283 10 -283 6 0 9 -3
8 -7 -6 -22 15 -170 27 -192 20 -37 1186 -1198 1210 -1205 11 -3 36 -8 55 -12
51 -10 640 -12 675 -2 41 11 56 33 44 67 -5 15 -433 450 -977 994 -1031 1030
-998 1000 -1036 945z"/>
<path d="M5045 2066 c-16 -7 -192 -175 -389 -372 -390 -389 -402 -405 -393
-494 3 -26 12 -60 20 -76 9 -16 182 -195 385 -397 333 -332 372 -368 398 -365
18 2 33 12 41 28 10 19 13 204 13 832 l0 807 -22 25 c-21 23 -25 24 -53 12z"/>
<path d="M64 692 c-7 -4 -16 -23 -21 -42 -12 -48 -8 -469 5 -501 17 -42 64
-91 107 -110 35 -16 69 -19 281 -19 220 0 244 2 264 18 45 36 27 59 -284 370
-294 294 -313 310 -352 284z"/>
</g>
</svg>
