<svg width="128" height="49" viewBox="0 0 128 49" fill="none" xmlns="http://www.w3.org/2000/svg">
<path d="M67.4837 7.86127C67.1709 7.63805 66.7955 7.51344 66.4079 7.50415C66.0266 7.51121 65.6574 7.63628 65.3539 7.86127C65.1829 7.98375 65.0463 8.14613 64.9565 8.33348C64.8667 8.52083 64.8266 8.72716 64.84 8.93353V28.3462C64.84 29.2062 64.8077 30.1441 64.7431 31.16C64.6822 32.1454 64.5098 33.1213 64.2292 34.0699C63.957 34.9818 63.5175 35.838 62.9318 36.5971C62.2983 37.3923 61.4265 37.9757 60.4374 38.2663C60.0208 38.3741 59.6407 38.587 59.3354 38.8835C59.1517 39.1154 59.0558 39.402 59.064 39.6948C59.0639 40.0501 59.1845 40.3955 59.4069 40.6771C59.5266 40.8293 59.6831 40.9501 59.8625 41.0289C60.0418 41.1077 60.2384 41.1419 60.4347 41.1286C61.5844 41.1436 62.7106 40.8108 63.6583 40.1763C64.6262 39.5179 65.4362 38.663 66.0324 37.6702C66.6978 36.5686 67.1929 35.3775 67.5018 34.1351C67.846 32.802 68.0187 31.4324 68.0156 30.0577V8.93177C68.0287 8.72384 67.9866 8.51613 67.8935 8.32864C67.8003 8.14115 67.6592 7.98019 67.4837 7.86127Z" fill="#23293F"/>
<path d="M55.8106 11.8442C55.0189 10.8087 54.0096 9.94981 52.8502 9.32488C51.5125 8.62648 50.0107 8.28116 48.4938 8.32318C47.0719 8.31993 45.6614 8.57006 44.3318 9.06123C42.972 9.56713 41.7008 10.2754 40.5635 11.1608C39.341 12.1128 38.2467 13.2114 37.3064 14.4305C36.2761 15.7524 35.4117 17.1896 34.7314 18.7115V10.9853C34.7435 10.7759 34.6999 10.5669 34.6048 10.3788C34.5097 10.1906 34.3663 10.0296 34.1886 9.91128C33.8758 9.68806 33.5004 9.56344 33.1128 9.55416C32.7321 9.56159 32.3637 9.68664 32.0606 9.91128C31.8894 10.0339 31.7526 10.1966 31.6628 10.3843C31.5729 10.572 31.533 10.7786 31.5467 10.9853V28.2993H16.1404V15.4251C16.2621 13.0604 15.5823 10.7222 14.206 8.77113C13.5757 7.95077 12.7488 7.29341 11.7976 6.85654C10.8463 6.41967 9.79979 6.2166 8.74941 6.26508C8.53476 6.25318 8.3206 6.29564 8.1278 6.38836C7.935 6.48107 7.77012 6.62088 7.64922 6.79415C7.42018 7.09901 7.29232 7.46486 7.28279 7.84259C7.29041 8.21363 7.41872 8.57273 7.64922 8.86812C7.77489 9.03473 7.94148 9.1679 8.13372 9.25541C8.32595 9.34293 8.53766 9.38197 8.74941 9.36897C9.4678 9.4023 10.1612 9.6361 10.7472 10.0426C11.3331 10.449 11.7869 11.011 12.0545 11.6616C12.7177 13.3521 13.0254 15.1552 12.9593 16.9638V28.3063H1.46427C1.26192 28.2956 1.05997 28.3335 0.876175 28.4167C0.69238 28.4998 0.532372 28.6258 0.410224 28.7834C0.173931 29.0664 0.0449219 29.4202 0.0449219 29.7851C0.0449219 30.15 0.173931 30.5037 0.410224 30.7868C0.532372 30.9444 0.69238 31.0703 0.876175 31.1535C1.05997 31.2367 1.26192 31.2746 1.46427 31.2638H47.0751C48.9493 31.3367 50.809 30.9167 52.4593 30.0478C53.8048 29.2887 54.9508 28.2351 55.8069 26.9704C56.6342 25.7421 57.223 24.3762 57.5441 22.9406C57.8576 21.6021 58.0217 20.2344 58.0335 18.8614C58.0294 17.6324 57.8509 16.4099 57.5034 15.2285C57.1522 14.0093 56.5774 12.8621 55.8069 11.8424L55.8106 11.8442ZM54.4163 22.5747C54.1958 23.6542 53.7643 24.6822 53.1451 25.6027C52.5508 26.4515 51.7401 27.1349 50.7928 27.5859C49.6568 28.0949 48.4151 28.3397 47.1656 28.301H34.7378V24.4441C35.2476 23.0308 35.8356 21.6455 36.4993 20.2944C37.2567 18.7271 38.193 17.2481 39.2905 15.8854C40.3829 14.5162 41.7068 13.3386 43.2054 12.4032C44.7567 11.4516 46.5597 10.9627 48.3924 10.9968C49.4034 10.9719 50.4018 11.2193 51.2777 11.7119C52.0793 12.1726 52.7671 12.7993 53.2926 13.5478C53.8223 14.3112 54.2117 15.1586 54.4435 16.0521C54.6816 16.9236 54.8048 17.8211 54.8099 18.723C54.8182 20.0168 54.6863 21.3079 54.4163 22.5747Z" fill="#23293F"/>
<path d="M77.9515 0C77.5836 0.000467456 77.2309 0.143298 76.971 0.397113C76.7111 0.650927 76.5652 0.994941 76.5654 1.35354V47.3433C76.5654 47.7017 76.7115 48.0454 76.9716 48.2989C77.2316 48.5523 77.5842 48.6947 77.952 48.6947C78.3197 48.6947 78.6724 48.5523 78.9324 48.2989C79.1924 48.0454 79.3385 47.7017 79.3385 47.3433V1.35354C79.3385 0.99486 79.1925 0.650848 78.9324 0.397059C78.6723 0.14327 78.3196 0.000467333 77.9515 0Z" fill="#3283D0"/>
<path d="M117.859 21.4496C118.644 24.6878 118.203 28.0935 116.616 31.0398C115.029 33.986 112.404 36.2745 109.223 37.4838C106.043 38.6932 102.521 38.742 99.3064 37.6214C96.0917 36.5007 93.4007 34.2859 91.7287 31.3849C90.0566 28.4838 89.5161 25.0917 90.2067 21.8331C90.8973 18.5744 92.7725 15.6686 95.4871 13.6506C98.2016 11.6326 101.573 10.6382 104.98 10.8505C108.387 11.0629 111.601 12.4676 114.03 14.8062L116.101 12.9932C113.185 10.1293 109.29 8.40968 105.158 8.16114C101.026 7.91261 96.9438 9.15253 93.6881 11.6452C90.4324 14.1379 88.2299 17.7096 87.4994 21.6814C86.7688 25.6531 87.561 29.748 89.7255 33.1877C91.89 36.6274 95.2758 39.1721 99.2394 40.3381C103.203 41.5041 107.468 41.2101 111.224 39.512C114.979 37.8138 117.964 34.8299 119.61 31.1275C121.256 27.4251 121.449 23.2623 120.152 19.4303L117.859 21.4496Z" fill="#23293F"/>
<path d="M126.811 8.34528C126.723 8.2422 126.614 8.15773 126.491 8.09707C126.369 8.03642 126.235 8.00084 126.098 7.99256C125.826 7.97192 125.557 8.05651 125.349 8.22799L117.58 14.6651L115.462 16.4207L103.467 26.3638L97.4846 20.8376C97.4218 20.7816 97.3495 20.7366 97.271 20.7044C97.0972 20.6021 96.8957 20.5533 96.6929 20.5645C96.4901 20.5756 96.2956 20.6462 96.1347 20.7671C95.9499 20.9041 95.8174 21.0976 95.7586 21.3165C95.6997 21.5355 95.7178 21.7673 95.8099 21.9751C95.8433 22.0526 95.8874 22.1253 95.941 22.1911L96.6341 23.0826L101.396 29.167L102.025 29.9782L102.146 30.114C102.263 30.2357 102.399 30.3389 102.549 30.42C102.751 30.5372 102.979 30.6047 103.214 30.6167C103.459 30.647 103.709 30.6231 103.944 30.5468C104.179 30.4705 104.393 30.3437 104.571 30.1758L104.635 30.1131L116.927 18.7839L119.027 16.844L120.219 15.7444L126.264 10.1653L126.745 9.7244C126.939 9.54684 127.055 9.30328 127.069 9.04451C127.083 8.78574 126.993 8.53177 126.82 8.33558L126.811 8.34528Z" fill="#3283D0"/>
</svg>
