<svg width="70" height="27" viewBox="0 0 70 27" fill="none" xmlns="http://www.w3.org/2000/svg">
<path d="M37.1715 4.35915C36.9991 4.23538 36.7922 4.16628 36.5786 4.16113C36.3685 4.16505 36.1651 4.23439 35.9978 4.35915C35.9036 4.42706 35.8283 4.51709 35.7788 4.62098C35.7293 4.72486 35.7072 4.83926 35.7146 4.95369V15.7175C35.7146 16.1944 35.6968 16.7144 35.6612 17.2777C35.6276 17.8241 35.5326 18.3652 35.378 18.8912C35.228 19.3968 34.9858 19.8716 34.663 20.2924C34.3139 20.7334 33.8335 21.0569 33.2884 21.218C33.0588 21.2777 32.8493 21.3958 32.6811 21.5602C32.5798 21.6888 32.527 21.8477 32.5315 22.0101C32.5315 22.2071 32.5979 22.3986 32.7205 22.5547C32.7865 22.6391 32.8727 22.7061 32.9716 22.7498C33.0704 22.7935 33.1787 22.8125 33.2869 22.8051C33.9205 22.8134 34.5411 22.6289 35.0634 22.277C35.5968 21.912 36.0431 21.4379 36.3717 20.8875C36.7384 20.2767 37.0112 19.6162 37.1814 18.9273C37.3712 18.1882 37.4663 17.4287 37.4646 16.6665V4.95271C37.4718 4.83742 37.4486 4.72225 37.3973 4.61829C37.3459 4.51433 37.2682 4.42508 37.1715 4.35915Z" fill="white"/>
<path d="M30.7314 6.56709C30.2951 5.99295 29.739 5.51671 29.1 5.17021C28.3628 4.78296 27.5352 4.59149 26.6993 4.61479C25.9157 4.61299 25.1384 4.75167 24.4057 5.02402C23.6563 5.30453 22.9558 5.69724 22.3291 6.18816C21.6554 6.71604 21.0523 7.32518 20.5341 8.00112C19.9664 8.73412 19.49 9.53102 19.1151 10.3749V6.09087C19.1218 5.97474 19.0977 5.8589 19.0453 5.75456C18.9929 5.65023 18.9139 5.56094 18.8159 5.49535C18.6436 5.37158 18.4367 5.30248 18.2231 5.29733C18.0133 5.30145 17.8103 5.37079 17.6432 5.49535C17.5489 5.56335 17.4735 5.65354 17.424 5.75761C17.3745 5.86167 17.3525 5.97628 17.36 6.09087V15.691H8.86992V8.55264C8.93696 7.24144 8.56239 5.945 7.80392 4.86316C7.45658 4.40829 7.00088 4.0438 6.47667 3.80157C5.95247 3.55934 5.37573 3.44674 4.79688 3.47362C4.67859 3.46702 4.56057 3.49056 4.45432 3.54197C4.34807 3.59338 4.25721 3.6709 4.19059 3.76698C4.06437 3.93601 3.99391 4.13887 3.98865 4.34831C3.99286 4.55404 4.06356 4.75316 4.19059 4.91694C4.25984 5.00932 4.35165 5.08316 4.45758 5.13169C4.56352 5.18021 4.68019 5.20186 4.79688 5.19465C5.19278 5.21313 5.57492 5.34277 5.89782 5.56814C6.22073 5.79351 6.47079 6.10512 6.61826 6.46588C6.98372 7.40318 7.15328 8.40297 7.11685 9.40582V15.6949H0.782177C0.670667 15.689 0.559375 15.71 0.458088 15.7561C0.356802 15.8023 0.268625 15.8721 0.201311 15.9594C0.0710943 16.1164 0 16.3125 0 16.5149C0 16.7172 0.0710943 16.9134 0.201311 17.0703C0.268625 17.1577 0.356802 17.2275 0.458088 17.2736C0.559375 17.3198 0.670667 17.3408 0.782177 17.3348H25.9174C26.9503 17.3752 27.9752 17.1423 28.8846 16.6606C29.6261 16.2396 30.2576 15.6555 30.7294 14.9542C31.1853 14.2731 31.5098 13.5158 31.6867 12.7198C31.8595 11.9776 31.9499 11.2193 31.9565 10.458C31.9541 9.77654 31.8558 9.09867 31.6643 8.4436C31.4707 7.76758 31.154 7.1315 30.7294 6.56611L30.7314 6.56709ZM29.9631 12.5169C29.8416 13.1154 29.6037 13.6855 29.2625 14.1959C28.935 14.6665 28.4883 15.0454 27.9662 15.2955C27.3402 15.5777 26.6559 15.7134 25.9673 15.692H19.1186V13.5534C19.3995 12.7698 19.7236 12.0017 20.0894 11.2525C20.5067 10.3835 21.0227 9.56345 21.6275 8.80785C22.2295 8.04867 22.9591 7.39572 23.785 6.87707C24.6399 6.34939 25.6334 6.07832 26.6434 6.09722C27.2005 6.08342 27.7507 6.22062 28.2334 6.49374C28.6752 6.74918 29.0542 7.09669 29.3438 7.5117C29.6357 7.93501 29.8503 8.40486 29.978 8.90027C30.1093 9.3835 30.1771 9.88117 30.18 10.3812C30.1846 11.0986 30.1119 11.8145 29.9631 12.5169Z" fill="white"/>
<path d="M42.9357 0C42.733 0.000259193 42.5386 0.0794554 42.3954 0.220189C42.2521 0.360923 42.1717 0.551671 42.1719 0.750504V26.2507C42.1719 26.4494 42.2524 26.64 42.3957 26.7805C42.539 26.9211 42.7333 27 42.936 27C43.1386 27 43.333 26.9211 43.4763 26.7805C43.6196 26.64 43.7001 26.4494 43.7001 26.2507V0.750504C43.7001 0.551626 43.6196 0.360879 43.4763 0.220159C43.3329 0.0794396 43.1385 0.000259125 42.9357 0Z" fill="white"/>
<path d="M64.9233 11.8933C65.3561 13.6888 65.113 15.5772 64.2386 17.2108C63.3642 18.8444 61.9174 20.1133 60.1646 20.7839C58.4119 21.4544 56.4711 21.4815 54.6995 20.8601C52.928 20.2387 51.445 19.0107 50.5236 17.4021C49.6022 15.7936 49.3043 13.9127 49.6849 12.1059C50.0655 10.2991 51.0989 8.68785 52.5948 7.56891C54.0907 6.44997 55.9485 5.89861 57.8261 6.01635C59.7037 6.13409 61.4748 6.913 62.8132 8.20967L63.955 7.20443C62.3478 5.61646 60.2015 4.66295 57.9243 4.52515C55.647 4.38734 53.3975 5.07485 51.6034 6.45698C49.8092 7.83912 48.5955 9.81953 48.1929 12.0218C47.7903 14.224 48.2269 16.4945 49.4197 18.4018C50.6125 20.309 52.4784 21.72 54.6626 22.3665C56.8469 23.013 59.1972 22.85 61.2669 21.9084C63.3366 20.9668 64.9813 19.3123 65.8885 17.2594C66.7956 15.2065 66.9019 12.8984 66.1872 10.7736L64.9233 11.8933Z" fill="white"/>
<path d="M69.8575 4.62696C69.809 4.5698 69.7492 4.52297 69.6816 4.48933C69.6141 4.4557 69.5402 4.43597 69.4646 4.43138C69.3148 4.41994 69.1665 4.46684 69.0517 4.56192L64.7708 8.13112L63.6036 9.10458L56.9932 14.6178L53.6965 11.5536C53.6618 11.5226 53.622 11.4976 53.5788 11.4798C53.483 11.4231 53.3719 11.396 53.2602 11.4022C53.1484 11.4084 53.0412 11.4475 52.9525 11.5145C52.8507 11.5905 52.7777 11.6978 52.7453 11.8192C52.7128 11.9406 52.7228 12.0692 52.7735 12.1844C52.792 12.2273 52.8163 12.2676 52.8458 12.3042L53.2278 12.7985L55.8519 16.1721L56.1984 16.6219L56.2652 16.6972C56.3298 16.7647 56.4046 16.8219 56.4871 16.8669C56.5984 16.9318 56.7242 16.9693 56.8536 16.9759C56.9889 16.9927 57.1264 16.9795 57.2559 16.9372C57.3853 16.8948 57.5034 16.8245 57.6014 16.7314L57.6368 16.6967L64.4108 10.4149L65.568 9.33928L66.2252 8.72957L69.5563 5.63611L69.8215 5.39164C69.9283 5.2932 69.9921 5.15814 69.9997 5.01466C70.0073 4.87118 69.9582 4.73036 69.8624 4.62158L69.8575 4.62696Z" fill="white"/>
</svg>
