<svg width="21" height="20" viewBox="0 0 21 20" fill="none" xmlns="http://www.w3.org/2000/svg">
<path d="M20.6746 4.82943C21.0108 5.29948 21.0865 5.83138 20.9016 6.42513L17.4338 17.6322C17.274 18.1599 16.9525 18.6032 16.4691 18.9619C15.9857 19.3206 15.4708 19.5 14.9244 19.5H3.28521C2.63789 19.5 2.01369 19.2794 1.41261 18.8382C0.811526 18.397 0.39329 17.8548 0.157901 17.2116C-0.0438613 16.6591 -0.0522681 16.1354 0.13268 15.6406C0.13268 15.6076 0.145291 15.4963 0.170511 15.3066C0.195731 15.117 0.212545 14.9644 0.220951 14.849C0.229358 14.783 0.216748 14.6943 0.183121 14.583C0.149494 14.4717 0.136884 14.3913 0.145291 14.3418C0.162104 14.2511 0.195731 14.1645 0.246172 14.082C0.296612 13.9996 0.365968 13.9027 0.454239 13.7913C0.54251 13.68 0.611865 13.5831 0.662306 13.5007C0.855661 13.1873 1.04481 12.81 1.22976 12.3688C1.41471 11.9276 1.54081 11.5503 1.60807 11.237C1.63329 11.1545 1.63539 11.0308 1.61437 10.8659C1.59335 10.701 1.59125 10.5855 1.60807 10.5195C1.63329 10.4288 1.70474 10.3134 1.82244 10.1732C1.94013 10.033 2.01159 9.93815 2.03681 9.88867C2.21335 9.5918 2.38989 9.21246 2.56644 8.75065C2.74298 8.28885 2.84806 7.91775 2.88169 7.63737C2.8901 7.56315 2.87959 7.43121 2.85016 7.24154C2.82074 7.05187 2.82284 6.93642 2.85647 6.89518C2.89009 6.78798 2.98257 6.66222 3.13389 6.5179C3.28521 6.37359 3.37769 6.28082 3.41131 6.23958C3.57104 6.02517 3.74969 5.67676 3.94724 5.19434C4.1448 4.71191 4.2604 4.31402 4.29402 4.00065C4.30243 3.93468 4.28982 3.82954 4.25619 3.68522C4.22257 3.54091 4.21416 3.43164 4.23097 3.35742C4.24779 3.29145 4.28562 3.21723 4.34446 3.13477C4.40331 3.0523 4.47897 2.95747 4.57145 2.85026C4.66392 2.74306 4.73538 2.65647 4.78582 2.59049C4.85307 2.49154 4.92243 2.36578 4.99388 2.21322C5.06534 2.06066 5.12839 1.91634 5.18304 1.78027C5.23768 1.64421 5.30493 1.49577 5.3848 1.33496C5.46466 1.17415 5.54663 1.04221 5.6307 0.939128C5.71476 0.836046 5.82615 0.739149 5.96486 0.648438C6.10358 0.557726 6.2549 0.510308 6.41883 0.506185C6.58276 0.502062 6.78242 0.52474 7.01781 0.574219L7.0052 0.611328C7.32466 0.537109 7.53903 0.5 7.64832 0.5H17.2446C17.8667 0.5 18.3459 0.730903 18.6822 1.19271C19.0184 1.65451 19.0941 2.19054 18.9092 2.80078L15.454 14.0078C15.1513 14.9891 14.8508 15.6221 14.5524 15.9066C14.2539 16.1911 13.7138 16.3333 12.932 16.3333H1.97376C1.74678 16.3333 1.58705 16.3952 1.49457 16.5189C1.4021 16.6508 1.3979 16.8281 1.48196 17.0508C1.68373 17.628 2.28901 17.9167 3.29782 17.9167H14.937C15.1808 17.9167 15.4162 17.8528 15.6431 17.7249C15.8701 17.5971 16.0172 17.426 16.0845 17.2116L19.8675 5.0026C19.9264 4.82118 19.9474 4.58615 19.9306 4.29753C20.25 4.42122 20.498 4.59852 20.6746 4.82943ZM7.2574 4.85417C7.22378 4.96137 7.23218 5.05415 7.28262 5.13249C7.33306 5.21083 7.41713 5.25 7.53483 5.25H15.2018C15.3111 5.25 15.4183 5.21083 15.5233 5.13249C15.6284 5.05415 15.6978 4.96137 15.7314 4.85417L15.9962 4.0625C16.0298 3.9553 16.0214 3.86252 15.971 3.78418C15.9206 3.70584 15.8365 3.66667 15.7188 3.66667H8.05184C7.94255 3.66667 7.83537 3.70584 7.73028 3.78418C7.6252 3.86252 7.55584 3.9553 7.52222 4.0625L7.2574 4.85417ZM6.21076 8.02083C6.17713 8.12804 6.18554 8.22081 6.23598 8.29915C6.28642 8.3775 6.37049 8.41667 6.48818 8.41667H14.1551C14.2644 8.41667 14.3716 8.3775 14.4767 8.29915C14.5818 8.22081 14.6511 8.12804 14.6848 8.02083L14.9496 7.22917C14.9832 7.12196 14.9748 7.02919 14.9244 6.95085C14.8739 6.8725 14.7899 6.83333 14.6722 6.83333H7.0052C6.89591 6.83333 6.78873 6.8725 6.68364 6.95085C6.57856 7.02919 6.5092 7.12196 6.47557 7.22917L6.21076 8.02083Z" fill="#3283D0"/>
</svg>
