<svg width="12" height="12" viewBox="0 0 12 12" fill="none" xmlns="http://www.w3.org/2000/svg">
<path fill-rule="evenodd" clip-rule="evenodd" d="M6.55886 0.340033C5.24943 0.210739 3.93566 0.539468 2.84142 1.27021C1.74718 2.00095 0.940152 3.08849 0.557851 4.34752C0.17555 5.6066 0.241626 6.95922 0.744821 8.17503C1.24802 9.39085 2.15719 10.3945 3.31745 11.0152C4.47772 11.6357 5.81726 11.8349 7.10788 11.5786C8.39846 11.3223 9.56029 10.6264 10.3953 9.60951C11.2304 8.59267 11.6871 7.31771 11.6875 6.00188C11.6878 5.25489 11.5409 4.51521 11.2552 3.82497C10.9695 3.13478 10.5507 2.50761 10.0226 1.97928C9.09243 1.04865 7.8683 0.469332 6.55886 0.340033ZM6 2.22336C6.24163 2.22336 6.4375 2.41923 6.4375 2.66086V5.98849C6.441 6.10483 6.39834 6.2223 6.30958 6.31106L4.28592 8.33472C4.11508 8.50556 3.83805 8.50556 3.66721 8.33472C3.49636 8.16383 3.49636 7.88685 3.66721 7.71601L5.5625 5.82067V2.66086C5.5625 2.41923 5.75837 2.22336 6 2.22336Z" fill="#3283D0"/>
</svg>
