<svg width="12" height="12" viewBox="0 0 12 12" fill="none" xmlns="http://www.w3.org/2000/svg">
<path d="M5.99953 5.99984C7.63286 5.99984 8.9162 4.7165 8.9162 3.08317C8.9162 1.44984 7.63286 0.166504 5.99953 0.166504C4.3662 0.166504 3.08286 1.44984 3.08286 3.08317C3.08286 4.7165 4.3662 5.99984 5.99953 5.99984ZM11.4245 11.1332C10.6662 8.15817 7.63287 6.2915 4.65786 7.04984C2.67453 7.57484 1.09953 9.0915 0.574531 11.1332C0.516197 11.4248 0.691197 11.7748 1.0412 11.8332C1.09953 11.8332 1.15786 11.8332 1.15786 11.8332H10.8412C11.1912 11.8332 11.4245 11.5998 11.4245 11.2498C11.4245 11.1915 11.4245 11.1332 11.4245 11.1332Z" fill="#3283D0"/>
</svg>
