<svg width="23" height="22" viewBox="0 0 23 22" fill="none" xmlns="http://www.w3.org/2000/svg">
<path d="M22.0417 2.32584H13.3333V0.956259C13.3333 0.887639 13.3177 0.81991 13.2878 0.75811C13.2578 0.69631 13.2143 0.642028 13.1604 0.5993C13.1065 0.556573 13.0436 0.526499 12.9764 0.511316C12.9092 0.496132 12.8395 0.49623 12.7723 0.511601L0.855667 3.25077C0.754635 3.2739 0.664459 3.33046 0.599861 3.41122C0.535264 3.49198 0.500061 3.59217 0.5 3.69543V19.2174C0.500042 19.3264 0.539252 19.4318 0.61054 19.5145C0.681827 19.5973 0.780484 19.6519 0.888667 19.6684L12.8053 21.4945C12.8707 21.5047 12.9374 21.5006 13.001 21.4826C13.0646 21.4646 13.1235 21.4331 13.1737 21.3902C13.2239 21.3474 13.2641 21.2942 13.2917 21.2343C13.3193 21.1744 13.3335 21.1093 13.3333 21.0435V19.6739H22.0417C22.1632 19.6739 22.2798 19.6258 22.3658 19.5402C22.4517 19.4546 22.5 19.3385 22.5 19.2174V2.78237C22.5 2.66129 22.4517 2.54517 22.3658 2.45956C22.2798 2.37394 22.1632 2.32584 22.0417 2.32584ZM13.3333 8.71724H16.0833V10.5433H13.3333V8.71724ZM4.23633 14.4101L6.22458 11.2418C6.27042 11.1694 6.29475 11.0855 6.29475 10.9999C6.29475 10.9142 6.27042 10.8304 6.22458 10.7579L4.23725 7.58961C4.20236 7.53884 4.17813 7.48156 4.16602 7.42122C4.15391 7.36088 4.15417 7.29873 4.16679 7.23849C4.17941 7.17825 4.20412 7.12118 4.23944 7.0707C4.27477 7.02022 4.31997 6.97737 4.37234 6.94473C4.42471 6.91209 4.48316 6.89033 4.54418 6.88076C4.60521 6.87119 4.66754 6.87401 4.72745 6.88905C4.78735 6.90408 4.84359 6.93102 4.89277 6.96825C4.94196 7.00548 4.98308 7.05223 5.01367 7.10569L6.528 9.5189C6.69575 9.78551 7.13758 9.78551 7.30533 9.5189L8.81967 7.10569C8.85141 7.05469 8.89295 7.01043 8.94192 6.97546C8.99088 6.94049 9.0463 6.9155 9.10498 6.90193C9.16367 6.88835 9.22447 6.88646 9.28389 6.89636C9.34332 6.90626 9.40019 6.92775 9.45125 6.9596C9.50237 6.9913 9.54671 7.03273 9.58175 7.0815C9.61678 7.13028 9.64183 7.18546 9.65545 7.24388C9.66907 7.3023 9.671 7.36283 9.66113 7.42199C9.65126 7.48116 9.62978 7.53781 9.59792 7.5887L7.60967 10.757C7.56383 10.8294 7.5395 10.9133 7.5395 10.999C7.5395 11.0846 7.56383 11.1685 7.60967 11.2409L9.597 14.4092C9.6289 14.4601 9.65044 14.5167 9.66038 14.5758C9.67031 14.6349 9.66846 14.6954 9.65493 14.7538C9.6414 14.8123 9.61644 14.8674 9.5815 14.9163C9.54655 14.9651 9.50229 15.0065 9.45125 15.0383C9.34727 15.0994 9.22371 15.1182 9.10614 15.091C8.98857 15.0638 8.88601 14.9927 8.81967 14.8922L7.30533 12.479C7.26374 12.4138 7.20627 12.3602 7.13828 12.323C7.07029 12.2859 6.99397 12.2664 6.91641 12.2665C6.83886 12.2666 6.76259 12.2862 6.69468 12.3235C6.62678 12.3608 6.56944 12.4146 6.528 12.4799L5.01367 14.8931C4.94718 14.9934 4.84462 15.0644 4.72712 15.0916C4.60961 15.1188 4.48612 15.1 4.38208 15.0392C4.33104 15.0075 4.28679 14.966 4.25184 14.9172C4.21689 14.8684 4.19194 14.8132 4.1784 14.7548C4.16487 14.6963 4.16302 14.6358 4.17296 14.5767C4.1829 14.5176 4.20443 14.461 4.23633 14.4101ZM13.3333 11.4564H16.0833V13.2825H13.3333V11.4564ZM17 11.4564H21.5833V13.2825H17V11.4564ZM17 10.5433V8.71724H21.5833V10.5433H17ZM17 7.80418V5.97807H21.5833V7.80418H17ZM16.0833 7.80418H13.3333V5.97807H16.0833V7.80418ZM13.3333 14.1956H16.0833V16.0217H13.3333V14.1956ZM17 14.1956H21.5833V16.0217H17V14.1956ZM21.5833 5.06501H17V3.2389H21.5833V5.06501ZM16.0833 3.2389V5.06501H13.3333V3.2389H16.0833ZM13.3333 16.9347H16.0833V18.7609H13.3333V16.9347ZM17 18.7609V16.9347H21.5833V18.7609H17Z" fill="#3283D0"/>
</svg>
