<svg width="9" height="15" viewBox="0 0 9 15" xmlns="http://www.w3.org/2000/svg">
  <path d="M8.3435 8.43779L8.7605 5.72279H6.1605V3.96079C6.14223 3.75805 6.1698 3.5538 6.24118 3.36316C6.31256 3.17252 6.42592 3.00039 6.57285 2.8595C6.71979 2.71862 6.89653 2.6126 7.09 2.54929C7.28347 2.48599 7.4887 2.46702 7.6905 2.49379H8.8745V0.182791C8.17692 0.0702767 7.47203 0.00911237 6.7655 -0.000209253C6.28099 -0.0370829 5.7943 0.0330387 5.33991 0.205188C4.88552 0.377337 4.47455 0.647302 4.1361 0.995958C3.79766 1.34461 3.54002 1.76343 3.38145 2.22273C3.22287 2.68204 3.16724 3.17059 3.2185 3.65379V5.72279H0.833496V8.43779H3.2175V14.9998H6.1525V8.43779H8.3435Z" />
</svg>
