<svg width="20" height="15" viewBox="0 0 20 15" xmlns="http://www.w3.org/2000/svg">
  <path d="M17.4035 3.73819C17.4155 3.90219 17.4155 4.06619 17.4155 4.23019C17.4248 5.64712 17.1526 7.05179 16.6146 8.36266C16.0767 9.67354 15.2837 10.8645 14.2818 11.8665C13.2798 12.8684 12.0889 13.6614 10.778 14.1993C9.4671 14.7373 8.06243 15.0095 6.6455 15.0002C4.58499 15.0053 2.56683 14.4153 0.833496 13.3012C1.13699 13.3347 1.44217 13.3504 1.7475 13.3482C3.45136 13.3527 5.10706 12.783 6.4475 11.7312C5.65768 11.7168 4.89207 11.4561 4.2576 10.9855C3.62313 10.5148 3.15147 9.85784 2.9085 9.10619C3.14501 9.14376 3.38402 9.16349 3.6235 9.16519C3.96094 9.16454 4.29694 9.12119 4.6235 9.03619C3.76498 8.86364 2.99282 8.39882 2.43852 7.7209C1.88422 7.04298 1.58206 6.19387 1.5835 5.31819V5.27119C2.10805 5.56375 2.69431 5.72821 3.2945 5.75119C2.49123 5.21537 1.9227 4.39324 1.7049 3.45255C1.4871 2.51186 1.63646 1.52351 2.1225 0.689187C3.07271 1.85887 4.25806 2.81589 5.60174 3.49824C6.94542 4.18059 8.41746 4.57304 9.9225 4.65019C9.86349 4.36563 9.83367 4.0758 9.8335 3.78519C9.83426 3.02599 10.0631 2.28452 10.4903 1.65692C10.9175 1.02932 11.5234 0.544527 12.2294 0.265393C12.9354 -0.013741 13.709 -0.0743419 14.4499 0.0914464C15.1908 0.257235 15.8648 0.641765 16.3845 1.19519C17.2314 1.03171 18.0434 0.722445 18.7845 0.281186C18.5023 1.1559 17.9106 1.89761 17.1205 2.36719C17.8723 2.28164 18.6071 2.08412 19.3005 1.78119C18.7827 2.53553 18.1414 3.19715 17.4035 3.73819Z"/>
</svg>
